<?xml version="1.0" encoding="utf-8" standalone="no"?>
<!DOCTYPE svg PUBLIC "-//W3C//DTD SVG 1.1//EN"
  "http://www.w3.org/Graphics/SVG/1.1/DTD/svg11.dtd">
<!-- Created with matplotlib (https://matplotlib.org/) -->
<svg height="814.304219pt" version="1.1" viewBox="0 0 1228.101563 814.304219" width="1228.101563pt" xmlns="http://www.w3.org/2000/svg" xmlns:xlink="http://www.w3.org/1999/xlink">
 <defs>
  <style type="text/css">
*{stroke-linecap:butt;stroke-linejoin:round;}
  </style>
 </defs>
 <g id="figure_1">
  <g id="patch_1">
   <path d="M 0 814.304219 
L 1228.101563 814.304219 
L 1228.101563 0 
L 0 0 
z
" style="fill:#ffffff;"/>
  </g>
  <g id="axes_1">
   <g id="patch_2">
    <path d="M 98.901563 561.536719 
L 1214.901562 561.536719 
L 1214.901562 17.936719 
L 98.901563 17.936719 
z
" style="fill:#ffffff;"/>
   </g>
   <g id="matplotlib.axis_1">
    <g id="xtick_1">
     <g id="line2d_1">
      <path clip-path="url(#p628e35b491)" d="M 242.024939 561.536719 
L 242.024939 17.936719 
" style="fill:none;stroke:#cccccc;stroke-linecap:round;"/>
     </g>
     <g id="text_1">
      <!-- 1 -->
      <defs>
       <path d="M 37.25 0 
L 28.46875 0 
L 28.46875 56 
Q 25.296875 52.984375 20.140625 49.953125 
Q 14.984375 46.921875 10.890625 45.40625 
L 10.890625 53.90625 
Q 18.265625 57.375 23.78125 62.296875 
Q 29.296875 67.234375 31.59375 71.875 
L 37.25 71.875 
z
" id="ArialMT-49"/>
      </defs>
      <g style="fill:#262626;" transform="translate(233.683533 592.510156)scale(0.3 -0.3)">
       <use xlink:href="#ArialMT-49"/>
      </g>
     </g>
    </g>
    <g id="xtick_2">
     <g id="line2d_2">
      <path clip-path="url(#p628e35b491)" d="M 449.075032 561.536719 
L 449.075032 17.936719 
" style="fill:none;stroke:#cccccc;stroke-linecap:round;"/>
     </g>
     <g id="text_2">
      <!-- 2 -->
      <defs>
       <path d="M 50.34375 8.453125 
L 50.34375 0 
L 3.03125 0 
Q 2.9375 3.171875 4.046875 6.109375 
Q 5.859375 10.9375 9.828125 15.625 
Q 13.8125 20.3125 21.34375 26.46875 
Q 33.015625 36.03125 37.109375 41.625 
Q 41.21875 47.21875 41.21875 52.203125 
Q 41.21875 57.421875 37.46875 61 
Q 33.734375 64.59375 27.734375 64.59375 
Q 21.390625 64.59375 17.578125 60.78125 
Q 13.765625 56.984375 13.71875 50.25 
L 4.6875 51.171875 
Q 5.609375 61.28125 11.65625 66.578125 
Q 17.71875 71.875 27.9375 71.875 
Q 38.234375 71.875 44.234375 66.15625 
Q 50.25 60.453125 50.25 52 
Q 50.25 47.703125 48.484375 43.546875 
Q 46.734375 39.40625 42.65625 34.8125 
Q 38.578125 30.21875 29.109375 22.21875 
Q 21.1875 15.578125 18.9375 13.203125 
Q 16.703125 10.84375 15.234375 8.453125 
z
" id="ArialMT-50"/>
      </defs>
      <g style="fill:#262626;" transform="translate(440.733626 592.510156)scale(0.3 -0.3)">
       <use xlink:href="#ArialMT-50"/>
      </g>
     </g>
    </g>
    <g id="xtick_3">
     <g id="line2d_3">
      <path clip-path="url(#p628e35b491)" d="M 656.125125 561.536719 
L 656.125125 17.936719 
" style="fill:none;stroke:#cccccc;stroke-linecap:round;"/>
     </g>
     <g id="text_3">
      <!-- 3 -->
      <defs>
       <path d="M 4.203125 18.890625 
L 12.984375 20.0625 
Q 14.5 12.59375 18.140625 9.296875 
Q 21.78125 6 27 6 
Q 33.203125 6 37.46875 10.296875 
Q 41.75 14.59375 41.75 20.953125 
Q 41.75 27 37.796875 30.921875 
Q 33.84375 34.859375 27.734375 34.859375 
Q 25.25 34.859375 21.53125 33.890625 
L 22.515625 41.609375 
Q 23.390625 41.5 23.921875 41.5 
Q 29.546875 41.5 34.03125 44.421875 
Q 38.53125 47.359375 38.53125 53.46875 
Q 38.53125 58.296875 35.25 61.46875 
Q 31.984375 64.65625 26.8125 64.65625 
Q 21.6875 64.65625 18.265625 61.421875 
Q 14.84375 58.203125 13.875 51.765625 
L 5.078125 53.328125 
Q 6.6875 62.15625 12.390625 67.015625 
Q 18.109375 71.875 26.609375 71.875 
Q 32.46875 71.875 37.390625 69.359375 
Q 42.328125 66.84375 44.9375 62.5 
Q 47.5625 58.15625 47.5625 53.265625 
Q 47.5625 48.640625 45.0625 44.828125 
Q 42.578125 41.015625 37.703125 38.765625 
Q 44.046875 37.3125 47.5625 32.6875 
Q 51.078125 28.078125 51.078125 21.140625 
Q 51.078125 11.765625 44.234375 5.25 
Q 37.40625 -1.265625 26.953125 -1.265625 
Q 17.53125 -1.265625 11.296875 4.34375 
Q 5.078125 9.96875 4.203125 18.890625 
z
" id="ArialMT-51"/>
      </defs>
      <g style="fill:#262626;" transform="translate(647.783718 592.510156)scale(0.3 -0.3)">
       <use xlink:href="#ArialMT-51"/>
      </g>
     </g>
    </g>
    <g id="xtick_4">
     <g id="line2d_4">
      <path clip-path="url(#p628e35b491)" d="M 863.175217 561.536719 
L 863.175217 17.936719 
" style="fill:none;stroke:#cccccc;stroke-linecap:round;"/>
     </g>
     <g id="text_4">
      <!-- 4 -->
      <defs>
       <path d="M 32.328125 0 
L 32.328125 17.140625 
L 1.265625 17.140625 
L 1.265625 25.203125 
L 33.9375 71.578125 
L 41.109375 71.578125 
L 41.109375 25.203125 
L 50.78125 25.203125 
L 50.78125 17.140625 
L 41.109375 17.140625 
L 41.109375 0 
z
M 32.328125 25.203125 
L 32.328125 57.46875 
L 9.90625 25.203125 
z
" id="ArialMT-52"/>
      </defs>
      <g style="fill:#262626;" transform="translate(854.833811 592.510156)scale(0.3 -0.3)">
       <use xlink:href="#ArialMT-52"/>
      </g>
     </g>
    </g>
    <g id="xtick_5">
     <g id="line2d_5">
      <path clip-path="url(#p628e35b491)" d="M 1070.22531 561.536719 
L 1070.22531 17.936719 
" style="fill:none;stroke:#cccccc;stroke-linecap:round;"/>
     </g>
     <g id="text_5">
      <!-- 5 -->
      <defs>
       <path d="M 4.15625 18.75 
L 13.375 19.53125 
Q 14.40625 12.796875 18.140625 9.390625 
Q 21.875 6 27.15625 6 
Q 33.5 6 37.890625 10.78125 
Q 42.28125 15.578125 42.28125 23.484375 
Q 42.28125 31 38.0625 35.34375 
Q 33.84375 39.703125 27 39.703125 
Q 22.75 39.703125 19.328125 37.765625 
Q 15.921875 35.84375 13.96875 32.765625 
L 5.71875 33.84375 
L 12.640625 70.609375 
L 48.25 70.609375 
L 48.25 62.203125 
L 19.671875 62.203125 
L 15.828125 42.96875 
Q 22.265625 47.46875 29.34375 47.46875 
Q 38.71875 47.46875 45.15625 40.96875 
Q 51.609375 34.46875 51.609375 24.265625 
Q 51.609375 14.546875 45.953125 7.46875 
Q 39.0625 -1.21875 27.15625 -1.21875 
Q 17.390625 -1.21875 11.203125 4.25 
Q 5.03125 9.71875 4.15625 18.75 
z
" id="ArialMT-53"/>
      </defs>
      <g style="fill:#262626;" transform="translate(1061.883904 592.510156)scale(0.3 -0.3)">
       <use xlink:href="#ArialMT-53"/>
      </g>
     </g>
    </g>
    <g id="text_6">
     <!-- Number of Observed Tasks -->
     <defs>
      <path d="M 7.625 0 
L 7.625 71.578125 
L 17.328125 71.578125 
L 54.9375 15.375 
L 54.9375 71.578125 
L 64.015625 71.578125 
L 64.015625 0 
L 54.296875 0 
L 16.703125 56.25 
L 16.703125 0 
z
" id="ArialMT-78"/>
      <path d="M 40.578125 0 
L 40.578125 7.625 
Q 34.515625 -1.171875 24.125 -1.171875 
Q 19.53125 -1.171875 15.546875 0.578125 
Q 11.578125 2.34375 9.640625 5 
Q 7.71875 7.671875 6.9375 11.53125 
Q 6.390625 14.109375 6.390625 19.734375 
L 6.390625 51.859375 
L 15.1875 51.859375 
L 15.1875 23.09375 
Q 15.1875 16.21875 15.71875 13.8125 
Q 16.546875 10.359375 19.234375 8.375 
Q 21.921875 6.390625 25.875 6.390625 
Q 29.828125 6.390625 33.296875 8.421875 
Q 36.765625 10.453125 38.203125 13.9375 
Q 39.65625 17.4375 39.65625 24.078125 
L 39.65625 51.859375 
L 48.4375 51.859375 
L 48.4375 0 
z
" id="ArialMT-117"/>
      <path d="M 6.59375 0 
L 6.59375 51.859375 
L 14.453125 51.859375 
L 14.453125 44.578125 
Q 16.890625 48.390625 20.9375 50.703125 
Q 25 53.03125 30.171875 53.03125 
Q 35.9375 53.03125 39.625 50.640625 
Q 43.3125 48.25 44.828125 43.953125 
Q 50.984375 53.03125 60.84375 53.03125 
Q 68.5625 53.03125 72.703125 48.75 
Q 76.859375 44.484375 76.859375 35.59375 
L 76.859375 0 
L 68.109375 0 
L 68.109375 32.671875 
Q 68.109375 37.9375 67.25 40.25 
Q 66.40625 42.578125 64.15625 43.984375 
Q 61.921875 45.40625 58.890625 45.40625 
Q 53.421875 45.40625 49.796875 41.765625 
Q 46.1875 38.140625 46.1875 30.125 
L 46.1875 0 
L 37.40625 0 
L 37.40625 33.6875 
Q 37.40625 39.546875 35.25 42.46875 
Q 33.109375 45.40625 28.21875 45.40625 
Q 24.515625 45.40625 21.359375 43.453125 
Q 18.21875 41.5 16.796875 37.734375 
Q 15.375 33.984375 15.375 26.90625 
L 15.375 0 
z
" id="ArialMT-109"/>
      <path d="M 14.703125 0 
L 6.546875 0 
L 6.546875 71.578125 
L 15.328125 71.578125 
L 15.328125 46.046875 
Q 20.90625 53.03125 29.546875 53.03125 
Q 34.328125 53.03125 38.59375 51.09375 
Q 42.875 49.171875 45.625 45.671875 
Q 48.390625 42.1875 49.953125 37.25 
Q 51.515625 32.328125 51.515625 26.703125 
Q 51.515625 13.375 44.921875 6.09375 
Q 38.328125 -1.171875 29.109375 -1.171875 
Q 19.921875 -1.171875 14.703125 6.5 
z
M 14.59375 26.3125 
Q 14.59375 17 17.140625 12.84375 
Q 21.296875 6.0625 28.375 6.0625 
Q 34.125 6.0625 38.328125 11.0625 
Q 42.53125 16.0625 42.53125 25.984375 
Q 42.53125 36.140625 38.5 40.96875 
Q 34.46875 45.796875 28.765625 45.796875 
Q 23 45.796875 18.796875 40.796875 
Q 14.59375 35.796875 14.59375 26.3125 
z
" id="ArialMT-98"/>
      <path d="M 42.09375 16.703125 
L 51.171875 15.578125 
Q 49.03125 7.625 43.21875 3.21875 
Q 37.40625 -1.171875 28.375 -1.171875 
Q 17 -1.171875 10.328125 5.828125 
Q 3.65625 12.84375 3.65625 25.484375 
Q 3.65625 38.578125 10.390625 45.796875 
Q 17.140625 53.03125 27.875 53.03125 
Q 38.28125 53.03125 44.875 45.953125 
Q 51.46875 38.875 51.46875 26.03125 
Q 51.46875 25.25 51.421875 23.6875 
L 12.75 23.6875 
Q 13.234375 15.140625 17.578125 10.59375 
Q 21.921875 6.0625 28.421875 6.0625 
Q 33.25 6.0625 36.671875 8.59375 
Q 40.09375 11.140625 42.09375 16.703125 
z
M 13.234375 30.90625 
L 42.1875 30.90625 
Q 41.609375 37.453125 38.875 40.71875 
Q 34.671875 45.796875 27.984375 45.796875 
Q 21.921875 45.796875 17.796875 41.75 
Q 13.671875 37.703125 13.234375 30.90625 
z
" id="ArialMT-101"/>
      <path d="M 6.5 0 
L 6.5 51.859375 
L 14.40625 51.859375 
L 14.40625 44 
Q 17.4375 49.515625 20 51.265625 
Q 22.5625 53.03125 25.640625 53.03125 
Q 30.078125 53.03125 34.671875 50.203125 
L 31.640625 42.046875 
Q 28.421875 43.953125 25.203125 43.953125 
Q 22.3125 43.953125 20.015625 42.21875 
Q 17.71875 40.484375 16.75 37.40625 
Q 15.28125 32.71875 15.28125 27.15625 
L 15.28125 0 
z
" id="ArialMT-114"/>
      <path id="ArialMT-32"/>
      <path d="M 3.328125 25.921875 
Q 3.328125 40.328125 11.328125 47.265625 
Q 18.015625 53.03125 27.640625 53.03125 
Q 38.328125 53.03125 45.109375 46.015625 
Q 51.90625 39.015625 51.90625 26.65625 
Q 51.90625 16.65625 48.90625 10.90625 
Q 45.90625 5.171875 40.15625 2 
Q 34.421875 -1.171875 27.640625 -1.171875 
Q 16.75 -1.171875 10.03125 5.8125 
Q 3.328125 12.796875 3.328125 25.921875 
z
M 12.359375 25.921875 
Q 12.359375 15.96875 16.703125 11.015625 
Q 21.046875 6.0625 27.640625 6.0625 
Q 34.1875 6.0625 38.53125 11.03125 
Q 42.875 16.015625 42.875 26.21875 
Q 42.875 35.84375 38.5 40.796875 
Q 34.125 45.75 27.640625 45.75 
Q 21.046875 45.75 16.703125 40.8125 
Q 12.359375 35.890625 12.359375 25.921875 
z
" id="ArialMT-111"/>
      <path d="M 8.6875 0 
L 8.6875 45.015625 
L 0.921875 45.015625 
L 0.921875 51.859375 
L 8.6875 51.859375 
L 8.6875 57.375 
Q 8.6875 62.59375 9.625 65.140625 
Q 10.890625 68.5625 14.078125 70.671875 
Q 17.28125 72.796875 23.046875 72.796875 
Q 26.765625 72.796875 31.25 71.921875 
L 29.9375 64.265625 
Q 27.203125 64.75 24.75 64.75 
Q 20.75 64.75 19.09375 63.03125 
Q 17.4375 61.328125 17.4375 56.640625 
L 17.4375 51.859375 
L 27.546875 51.859375 
L 27.546875 45.015625 
L 17.4375 45.015625 
L 17.4375 0 
z
" id="ArialMT-102"/>
      <path d="M 4.828125 34.859375 
Q 4.828125 52.6875 14.390625 62.765625 
Q 23.96875 72.859375 39.109375 72.859375 
Q 49.03125 72.859375 56.984375 68.109375 
Q 64.9375 63.375 69.109375 54.90625 
Q 73.296875 46.4375 73.296875 35.6875 
Q 73.296875 24.8125 68.890625 16.21875 
Q 64.5 7.625 56.4375 3.203125 
Q 48.390625 -1.21875 39.0625 -1.21875 
Q 28.953125 -1.21875 20.984375 3.65625 
Q 13.03125 8.546875 8.921875 16.984375 
Q 4.828125 25.4375 4.828125 34.859375 
z
M 14.59375 34.71875 
Q 14.59375 21.78125 21.546875 14.328125 
Q 28.515625 6.890625 39.015625 6.890625 
Q 49.703125 6.890625 56.609375 14.40625 
Q 63.53125 21.921875 63.53125 35.75 
Q 63.53125 44.484375 60.578125 51 
Q 57.625 57.515625 51.921875 61.109375 
Q 46.234375 64.703125 39.15625 64.703125 
Q 29.109375 64.703125 21.84375 57.78125 
Q 14.59375 50.875 14.59375 34.71875 
z
" id="ArialMT-79"/>
      <path d="M 3.078125 15.484375 
L 11.765625 16.84375 
Q 12.5 11.625 15.84375 8.84375 
Q 19.1875 6.0625 25.203125 6.0625 
Q 31.25 6.0625 34.171875 8.515625 
Q 37.109375 10.984375 37.109375 14.3125 
Q 37.109375 17.28125 34.515625 19 
Q 32.71875 20.171875 25.53125 21.96875 
Q 15.875 24.421875 12.140625 26.203125 
Q 8.40625 27.984375 6.46875 31.125 
Q 4.546875 34.28125 4.546875 38.09375 
Q 4.546875 41.546875 6.125 44.5 
Q 7.71875 47.46875 10.453125 49.421875 
Q 12.5 50.921875 16.03125 51.96875 
Q 19.578125 53.03125 23.640625 53.03125 
Q 29.734375 53.03125 34.34375 51.265625 
Q 38.96875 49.515625 41.15625 46.5 
Q 43.359375 43.5 44.1875 38.484375 
L 35.59375 37.3125 
Q 35.015625 41.3125 32.203125 43.546875 
Q 29.390625 45.796875 24.265625 45.796875 
Q 18.21875 45.796875 15.625 43.796875 
Q 13.03125 41.796875 13.03125 39.109375 
Q 13.03125 37.40625 14.109375 36.03125 
Q 15.1875 34.625 17.484375 33.6875 
Q 18.796875 33.203125 25.25 31.453125 
Q 34.578125 28.953125 38.25 27.359375 
Q 41.9375 25.78125 44.03125 22.75 
Q 46.140625 19.734375 46.140625 15.234375 
Q 46.140625 10.84375 43.578125 6.953125 
Q 41.015625 3.078125 36.171875 0.953125 
Q 31.34375 -1.171875 25.25 -1.171875 
Q 15.140625 -1.171875 9.84375 3.03125 
Q 4.546875 7.234375 3.078125 15.484375 
z
" id="ArialMT-115"/>
      <path d="M 21 0 
L 1.265625 51.859375 
L 10.546875 51.859375 
L 21.6875 20.796875 
Q 23.484375 15.765625 25 10.359375 
Q 26.171875 14.453125 28.265625 20.21875 
L 39.796875 51.859375 
L 48.828125 51.859375 
L 29.203125 0 
z
" id="ArialMT-118"/>
      <path d="M 40.234375 0 
L 40.234375 6.546875 
Q 35.296875 -1.171875 25.734375 -1.171875 
Q 19.53125 -1.171875 14.328125 2.25 
Q 9.125 5.671875 6.265625 11.796875 
Q 3.421875 17.921875 3.421875 25.875 
Q 3.421875 33.640625 6 39.96875 
Q 8.59375 46.296875 13.765625 49.65625 
Q 18.953125 53.03125 25.34375 53.03125 
Q 30.03125 53.03125 33.6875 51.046875 
Q 37.359375 49.078125 39.65625 45.90625 
L 39.65625 71.578125 
L 48.390625 71.578125 
L 48.390625 0 
z
M 12.453125 25.875 
Q 12.453125 15.921875 16.640625 10.984375 
Q 20.84375 6.0625 26.5625 6.0625 
Q 32.328125 6.0625 36.34375 10.765625 
Q 40.375 15.484375 40.375 25.140625 
Q 40.375 35.796875 36.265625 40.765625 
Q 32.171875 45.75 26.171875 45.75 
Q 20.3125 45.75 16.375 40.96875 
Q 12.453125 36.1875 12.453125 25.875 
z
" id="ArialMT-100"/>
      <path d="M 25.921875 0 
L 25.921875 63.140625 
L 2.34375 63.140625 
L 2.34375 71.578125 
L 59.078125 71.578125 
L 59.078125 63.140625 
L 35.40625 63.140625 
L 35.40625 0 
z
" id="ArialMT-84"/>
      <path d="M 40.4375 6.390625 
Q 35.546875 2.25 31.03125 0.53125 
Q 26.515625 -1.171875 21.34375 -1.171875 
Q 12.796875 -1.171875 8.203125 3 
Q 3.609375 7.171875 3.609375 13.671875 
Q 3.609375 17.484375 5.34375 20.625 
Q 7.078125 23.78125 9.890625 25.6875 
Q 12.703125 27.59375 16.21875 28.5625 
Q 18.796875 29.25 24.03125 29.890625 
Q 34.671875 31.15625 39.703125 32.90625 
Q 39.75 34.71875 39.75 35.203125 
Q 39.75 40.578125 37.25 42.78125 
Q 33.890625 45.75 27.25 45.75 
Q 21.046875 45.75 18.09375 43.578125 
Q 15.140625 41.40625 13.71875 35.890625 
L 5.125 37.0625 
Q 6.296875 42.578125 8.984375 45.96875 
Q 11.671875 49.359375 16.75 51.1875 
Q 21.828125 53.03125 28.515625 53.03125 
Q 35.15625 53.03125 39.296875 51.46875 
Q 43.453125 49.90625 45.40625 47.53125 
Q 47.359375 45.171875 48.140625 41.546875 
Q 48.578125 39.3125 48.578125 33.453125 
L 48.578125 21.734375 
Q 48.578125 9.46875 49.140625 6.21875 
Q 49.703125 2.984375 51.375 0 
L 42.1875 0 
Q 40.828125 2.734375 40.4375 6.390625 
z
M 39.703125 26.03125 
Q 34.90625 24.078125 25.34375 22.703125 
Q 19.921875 21.921875 17.671875 20.9375 
Q 15.4375 19.96875 14.203125 18.09375 
Q 12.984375 16.21875 12.984375 13.921875 
Q 12.984375 10.40625 15.640625 8.0625 
Q 18.3125 5.71875 23.4375 5.71875 
Q 28.515625 5.71875 32.46875 7.9375 
Q 36.421875 10.15625 38.28125 14.015625 
Q 39.703125 17 39.703125 22.796875 
z
" id="ArialMT-97"/>
      <path d="M 6.640625 0 
L 6.640625 71.578125 
L 15.4375 71.578125 
L 15.4375 30.765625 
L 36.234375 51.859375 
L 47.609375 51.859375 
L 27.78125 32.625 
L 49.609375 0 
L 38.765625 0 
L 21.625 26.515625 
L 15.4375 20.5625 
L 15.4375 0 
z
" id="ArialMT-107"/>
     </defs>
     <g style="fill:#262626;" transform="translate(473.542969 623.946094)scale(0.3 -0.3)">
      <use xlink:href="#ArialMT-78"/>
      <use x="72.216797" xlink:href="#ArialMT-117"/>
      <use x="127.832031" xlink:href="#ArialMT-109"/>
      <use x="211.132812" xlink:href="#ArialMT-98"/>
      <use x="266.748047" xlink:href="#ArialMT-101"/>
      <use x="322.363281" xlink:href="#ArialMT-114"/>
      <use x="355.664062" xlink:href="#ArialMT-32"/>
      <use x="383.447266" xlink:href="#ArialMT-111"/>
      <use x="439.0625" xlink:href="#ArialMT-102"/>
      <use x="466.845703" xlink:href="#ArialMT-32"/>
      <use x="494.628906" xlink:href="#ArialMT-79"/>
      <use x="572.412109" xlink:href="#ArialMT-98"/>
      <use x="628.027344" xlink:href="#ArialMT-115"/>
      <use x="678.027344" xlink:href="#ArialMT-101"/>
      <use x="733.642578" xlink:href="#ArialMT-114"/>
      <use x="766.943359" xlink:href="#ArialMT-118"/>
      <use x="816.943359" xlink:href="#ArialMT-101"/>
      <use x="872.558594" xlink:href="#ArialMT-100"/>
      <use x="928.173828" xlink:href="#ArialMT-32"/>
      <use x="955.941406" xlink:href="#ArialMT-84"/>
      <use x="1016.853516" xlink:href="#ArialMT-97"/>
      <use x="1072.46875" xlink:href="#ArialMT-115"/>
      <use x="1122.46875" xlink:href="#ArialMT-107"/>
      <use x="1172.46875" xlink:href="#ArialMT-115"/>
     </g>
    </g>
   </g>
   <g id="matplotlib.axis_2">
    <g id="ytick_1">
     <g id="line2d_6">
      <path clip-path="url(#p628e35b491)" d="M 98.901563 561.536719 
L 1214.901562 561.536719 
" style="fill:none;stroke:#cccccc;stroke-linecap:round;"/>
     </g>
     <g id="text_7">
      <!-- 88 -->
      <defs>
       <path d="M 17.671875 38.8125 
Q 12.203125 40.828125 9.5625 44.53125 
Q 6.9375 48.25 6.9375 53.421875 
Q 6.9375 61.234375 12.546875 66.546875 
Q 18.171875 71.875 27.484375 71.875 
Q 36.859375 71.875 42.578125 66.421875 
Q 48.296875 60.984375 48.296875 53.171875 
Q 48.296875 48.1875 45.671875 44.5 
Q 43.0625 40.828125 37.75 38.8125 
Q 44.34375 36.671875 47.78125 31.875 
Q 51.21875 27.09375 51.21875 20.453125 
Q 51.21875 11.28125 44.71875 5.03125 
Q 38.234375 -1.21875 27.640625 -1.21875 
Q 17.046875 -1.21875 10.546875 5.046875 
Q 4.046875 11.328125 4.046875 20.703125 
Q 4.046875 27.6875 7.59375 32.390625 
Q 11.140625 37.109375 17.671875 38.8125 
z
M 15.921875 53.71875 
Q 15.921875 48.640625 19.1875 45.40625 
Q 22.46875 42.1875 27.6875 42.1875 
Q 32.765625 42.1875 36.015625 45.375 
Q 39.265625 48.578125 39.265625 53.21875 
Q 39.265625 58.0625 35.90625 61.359375 
Q 32.5625 64.65625 27.59375 64.65625 
Q 22.5625 64.65625 19.234375 61.421875 
Q 15.921875 58.203125 15.921875 53.71875 
z
M 13.09375 20.65625 
Q 13.09375 16.890625 14.875 13.375 
Q 16.65625 9.859375 20.171875 7.921875 
Q 23.6875 6 27.734375 6 
Q 34.03125 6 38.125 10.046875 
Q 42.234375 14.109375 42.234375 20.359375 
Q 42.234375 26.703125 38.015625 30.859375 
Q 33.796875 35.015625 27.4375 35.015625 
Q 21.234375 35.015625 17.15625 30.90625 
Q 13.09375 26.8125 13.09375 20.65625 
z
" id="ArialMT-56"/>
      </defs>
      <g style="fill:#262626;" transform="translate(56.035938 572.273438)scale(0.3 -0.3)">
       <use xlink:href="#ArialMT-56"/>
       <use x="55.615234" xlink:href="#ArialMT-56"/>
      </g>
     </g>
    </g>
    <g id="ytick_2">
     <g id="line2d_7">
      <path clip-path="url(#p628e35b491)" d="M 98.901563 470.936719 
L 1214.901562 470.936719 
" style="fill:none;stroke:#cccccc;stroke-linecap:round;"/>
     </g>
     <g id="text_8">
      <!-- 90 -->
      <defs>
       <path d="M 5.46875 16.546875 
L 13.921875 17.328125 
Q 14.984375 11.375 18.015625 8.6875 
Q 21.046875 6 25.78125 6 
Q 29.828125 6 32.875 7.859375 
Q 35.9375 9.71875 37.890625 12.8125 
Q 39.84375 15.921875 41.15625 21.1875 
Q 42.484375 26.46875 42.484375 31.9375 
Q 42.484375 32.515625 42.4375 33.6875 
Q 39.796875 29.5 35.234375 26.875 
Q 30.671875 24.265625 25.34375 24.265625 
Q 16.453125 24.265625 10.296875 30.703125 
Q 4.15625 37.15625 4.15625 47.703125 
Q 4.15625 58.59375 10.578125 65.234375 
Q 17 71.875 26.65625 71.875 
Q 33.640625 71.875 39.421875 68.109375 
Q 45.21875 64.359375 48.21875 57.390625 
Q 51.21875 50.4375 51.21875 37.25 
Q 51.21875 23.53125 48.234375 15.40625 
Q 45.265625 7.28125 39.375 3.03125 
Q 33.5 -1.21875 25.59375 -1.21875 
Q 17.1875 -1.21875 11.859375 3.4375 
Q 6.546875 8.109375 5.46875 16.546875 
z
M 41.453125 48.140625 
Q 41.453125 55.71875 37.421875 60.15625 
Q 33.40625 64.59375 27.734375 64.59375 
Q 21.875 64.59375 17.53125 59.8125 
Q 13.1875 55.03125 13.1875 47.40625 
Q 13.1875 40.578125 17.3125 36.296875 
Q 21.4375 32.03125 27.484375 32.03125 
Q 33.59375 32.03125 37.515625 36.296875 
Q 41.453125 40.578125 41.453125 48.140625 
z
" id="ArialMT-57"/>
       <path d="M 4.15625 35.296875 
Q 4.15625 48 6.765625 55.734375 
Q 9.375 63.484375 14.515625 67.671875 
Q 19.671875 71.875 27.484375 71.875 
Q 33.25 71.875 37.59375 69.546875 
Q 41.9375 67.234375 44.765625 62.859375 
Q 47.609375 58.5 49.21875 52.21875 
Q 50.828125 45.953125 50.828125 35.296875 
Q 50.828125 22.703125 48.234375 14.96875 
Q 45.65625 7.234375 40.5 3 
Q 35.359375 -1.21875 27.484375 -1.21875 
Q 17.140625 -1.21875 11.234375 6.203125 
Q 4.15625 15.140625 4.15625 35.296875 
z
M 13.1875 35.296875 
Q 13.1875 17.671875 17.3125 11.828125 
Q 21.4375 6 27.484375 6 
Q 33.546875 6 37.671875 11.859375 
Q 41.796875 17.71875 41.796875 35.296875 
Q 41.796875 52.984375 37.671875 58.78125 
Q 33.546875 64.59375 27.390625 64.59375 
Q 21.34375 64.59375 17.71875 59.46875 
Q 13.1875 52.9375 13.1875 35.296875 
z
" id="ArialMT-48"/>
      </defs>
      <g style="fill:#262626;" transform="translate(56.035938 481.673438)scale(0.3 -0.3)">
       <use xlink:href="#ArialMT-57"/>
       <use x="55.615234" xlink:href="#ArialMT-48"/>
      </g>
     </g>
    </g>
    <g id="ytick_3">
     <g id="line2d_8">
      <path clip-path="url(#p628e35b491)" d="M 98.901563 380.336719 
L 1214.901562 380.336719 
" style="fill:none;stroke:#cccccc;stroke-linecap:round;"/>
     </g>
     <g id="text_9">
      <!-- 92 -->
      <g style="fill:#262626;" transform="translate(56.035938 391.073438)scale(0.3 -0.3)">
       <use xlink:href="#ArialMT-57"/>
       <use x="55.615234" xlink:href="#ArialMT-50"/>
      </g>
     </g>
    </g>
    <g id="ytick_4">
     <g id="line2d_9">
      <path clip-path="url(#p628e35b491)" d="M 98.901563 289.736719 
L 1214.901562 289.736719 
" style="fill:none;stroke:#cccccc;stroke-linecap:round;"/>
     </g>
     <g id="text_10">
      <!-- 94 -->
      <g style="fill:#262626;" transform="translate(56.035938 300.473438)scale(0.3 -0.3)">
       <use xlink:href="#ArialMT-57"/>
       <use x="55.615234" xlink:href="#ArialMT-52"/>
      </g>
     </g>
    </g>
    <g id="ytick_5">
     <g id="line2d_10">
      <path clip-path="url(#p628e35b491)" d="M 98.901563 199.136719 
L 1214.901562 199.136719 
" style="fill:none;stroke:#cccccc;stroke-linecap:round;"/>
     </g>
     <g id="text_11">
      <!-- 96 -->
      <defs>
       <path d="M 49.75 54.046875 
L 41.015625 53.375 
Q 39.84375 58.546875 37.703125 60.890625 
Q 34.125 64.65625 28.90625 64.65625 
Q 24.703125 64.65625 21.53125 62.3125 
Q 17.390625 59.28125 14.984375 53.46875 
Q 12.59375 47.65625 12.5 36.921875 
Q 15.671875 41.75 20.265625 44.09375 
Q 24.859375 46.4375 29.890625 46.4375 
Q 38.671875 46.4375 44.84375 39.96875 
Q 51.03125 33.5 51.03125 23.25 
Q 51.03125 16.5 48.125 10.71875 
Q 45.21875 4.9375 40.140625 1.859375 
Q 35.0625 -1.21875 28.609375 -1.21875 
Q 17.625 -1.21875 10.6875 6.859375 
Q 3.765625 14.9375 3.765625 33.5 
Q 3.765625 54.25 11.421875 63.671875 
Q 18.109375 71.875 29.4375 71.875 
Q 37.890625 71.875 43.28125 67.140625 
Q 48.6875 62.40625 49.75 54.046875 
z
M 13.875 23.1875 
Q 13.875 18.65625 15.796875 14.5 
Q 17.71875 10.359375 21.1875 8.171875 
Q 24.65625 6 28.46875 6 
Q 34.03125 6 38.03125 10.484375 
Q 42.046875 14.984375 42.046875 22.703125 
Q 42.046875 30.125 38.078125 34.390625 
Q 34.125 38.671875 28.125 38.671875 
Q 22.171875 38.671875 18.015625 34.390625 
Q 13.875 30.125 13.875 23.1875 
z
" id="ArialMT-54"/>
      </defs>
      <g style="fill:#262626;" transform="translate(56.035938 209.873438)scale(0.3 -0.3)">
       <use xlink:href="#ArialMT-57"/>
       <use x="55.615234" xlink:href="#ArialMT-54"/>
      </g>
     </g>
    </g>
    <g id="ytick_6">
     <g id="line2d_11">
      <path clip-path="url(#p628e35b491)" d="M 98.901563 108.536719 
L 1214.901562 108.536719 
" style="fill:none;stroke:#cccccc;stroke-linecap:round;"/>
     </g>
     <g id="text_12">
      <!-- 98 -->
      <g style="fill:#262626;" transform="translate(56.035938 119.273438)scale(0.3 -0.3)">
       <use xlink:href="#ArialMT-57"/>
       <use x="55.615234" xlink:href="#ArialMT-56"/>
      </g>
     </g>
    </g>
    <g id="ytick_7">
     <g id="line2d_12">
      <path clip-path="url(#p628e35b491)" d="M 98.901563 17.936719 
L 1214.901562 17.936719 
" style="fill:none;stroke:#cccccc;stroke-linecap:round;"/>
     </g>
     <g id="text_13">
      <!-- 100 -->
      <g style="fill:#262626;" transform="translate(39.353125 28.673438)scale(0.3 -0.3)">
       <use xlink:href="#ArialMT-49"/>
       <use x="55.615234" xlink:href="#ArialMT-48"/>
       <use x="111.230469" xlink:href="#ArialMT-48"/>
      </g>
     </g>
    </g>
    <g id="text_14">
     <!-- Average Test Accuracy (%) -->
     <defs>
      <path d="M -0.140625 0 
L 27.34375 71.578125 
L 37.546875 71.578125 
L 66.84375 0 
L 56.0625 0 
L 47.703125 21.6875 
L 17.78125 21.6875 
L 9.90625 0 
z
M 20.515625 29.390625 
L 44.78125 29.390625 
L 37.3125 49.21875 
Q 33.890625 58.25 32.234375 64.0625 
Q 30.859375 57.171875 28.375 50.390625 
z
" id="ArialMT-65"/>
      <path d="M 4.984375 -4.296875 
L 13.53125 -5.5625 
Q 14.0625 -9.515625 16.5 -11.328125 
Q 19.78125 -13.765625 25.4375 -13.765625 
Q 31.546875 -13.765625 34.859375 -11.328125 
Q 38.1875 -8.890625 39.359375 -4.5 
Q 40.046875 -1.8125 39.984375 6.78125 
Q 34.234375 0 25.640625 0 
Q 14.9375 0 9.078125 7.71875 
Q 3.21875 15.4375 3.21875 26.21875 
Q 3.21875 33.640625 5.90625 39.90625 
Q 8.59375 46.1875 13.6875 49.609375 
Q 18.796875 53.03125 25.6875 53.03125 
Q 34.859375 53.03125 40.828125 45.609375 
L 40.828125 51.859375 
L 48.921875 51.859375 
L 48.921875 7.03125 
Q 48.921875 -5.078125 46.453125 -10.125 
Q 44 -15.1875 38.640625 -18.109375 
Q 33.296875 -21.046875 25.484375 -21.046875 
Q 16.21875 -21.046875 10.5 -16.875 
Q 4.78125 -12.703125 4.984375 -4.296875 
z
M 12.25 26.859375 
Q 12.25 16.65625 16.296875 11.96875 
Q 20.359375 7.28125 26.46875 7.28125 
Q 32.515625 7.28125 36.609375 11.9375 
Q 40.71875 16.609375 40.71875 26.5625 
Q 40.71875 36.078125 36.5 40.90625 
Q 32.28125 45.75 26.3125 45.75 
Q 20.453125 45.75 16.34375 40.984375 
Q 12.25 36.234375 12.25 26.859375 
z
" id="ArialMT-103"/>
      <path d="M 25.78125 7.859375 
L 27.046875 0.09375 
Q 23.34375 -0.6875 20.40625 -0.6875 
Q 15.625 -0.6875 12.984375 0.828125 
Q 10.359375 2.34375 9.28125 4.8125 
Q 8.203125 7.28125 8.203125 15.1875 
L 8.203125 45.015625 
L 1.765625 45.015625 
L 1.765625 51.859375 
L 8.203125 51.859375 
L 8.203125 64.703125 
L 16.9375 69.96875 
L 16.9375 51.859375 
L 25.78125 51.859375 
L 25.78125 45.015625 
L 16.9375 45.015625 
L 16.9375 14.703125 
Q 16.9375 10.9375 17.40625 9.859375 
Q 17.875 8.796875 18.921875 8.15625 
Q 19.96875 7.515625 21.921875 7.515625 
Q 23.390625 7.515625 25.78125 7.859375 
z
" id="ArialMT-116"/>
      <path d="M 40.4375 19 
L 49.078125 17.875 
Q 47.65625 8.9375 41.8125 3.875 
Q 35.984375 -1.171875 27.484375 -1.171875 
Q 16.84375 -1.171875 10.375 5.78125 
Q 3.90625 12.75 3.90625 25.734375 
Q 3.90625 34.125 6.6875 40.421875 
Q 9.46875 46.734375 15.15625 49.875 
Q 20.84375 53.03125 27.546875 53.03125 
Q 35.984375 53.03125 41.359375 48.75 
Q 46.734375 44.484375 48.25 36.625 
L 39.703125 35.296875 
Q 38.484375 40.53125 35.375 43.15625 
Q 32.28125 45.796875 27.875 45.796875 
Q 21.234375 45.796875 17.078125 41.03125 
Q 12.9375 36.28125 12.9375 25.984375 
Q 12.9375 15.53125 16.9375 10.796875 
Q 20.953125 6.0625 27.390625 6.0625 
Q 32.5625 6.0625 36.03125 9.234375 
Q 39.5 12.40625 40.4375 19 
z
" id="ArialMT-99"/>
      <path d="M 6.203125 -19.96875 
L 5.21875 -11.71875 
Q 8.109375 -12.5 10.25 -12.5 
Q 13.1875 -12.5 14.9375 -11.515625 
Q 16.703125 -10.546875 17.828125 -8.796875 
Q 18.65625 -7.46875 20.515625 -2.25 
Q 20.75 -1.515625 21.296875 -0.09375 
L 1.609375 51.859375 
L 11.078125 51.859375 
L 21.875 21.828125 
Q 23.96875 16.109375 25.640625 9.8125 
Q 27.15625 15.875 29.25 21.625 
L 40.328125 51.859375 
L 49.125 51.859375 
L 29.390625 -0.875 
Q 26.21875 -9.421875 24.46875 -12.640625 
Q 22.125 -17 19.09375 -19.015625 
Q 16.0625 -21.046875 11.859375 -21.046875 
Q 9.328125 -21.046875 6.203125 -19.96875 
z
" id="ArialMT-121"/>
      <path d="M 23.390625 -21.046875 
Q 16.109375 -11.859375 11.078125 0.4375 
Q 6.0625 12.75 6.0625 25.921875 
Q 6.0625 37.546875 9.8125 48.1875 
Q 14.203125 60.546875 23.390625 72.796875 
L 29.6875 72.796875 
Q 23.78125 62.640625 21.875 58.296875 
Q 18.890625 51.5625 17.1875 44.234375 
Q 15.09375 35.109375 15.09375 25.875 
Q 15.09375 2.390625 29.6875 -21.046875 
z
" id="ArialMT-40"/>
      <path d="M 5.8125 54.390625 
Q 5.8125 62.0625 9.671875 67.421875 
Q 13.53125 72.796875 20.84375 72.796875 
Q 27.59375 72.796875 32 67.984375 
Q 36.421875 63.1875 36.421875 53.859375 
Q 36.421875 44.78125 31.953125 39.875 
Q 27.484375 34.96875 20.953125 34.96875 
Q 14.453125 34.96875 10.125 39.796875 
Q 5.8125 44.625 5.8125 54.390625 
z
M 21.09375 66.75 
Q 17.828125 66.75 15.65625 63.90625 
Q 13.484375 61.078125 13.484375 53.515625 
Q 13.484375 46.625 15.671875 43.8125 
Q 17.875 41.015625 21.09375 41.015625 
Q 24.421875 41.015625 26.59375 43.84375 
Q 28.765625 46.6875 28.765625 54.203125 
Q 28.765625 61.140625 26.5625 63.9375 
Q 24.359375 66.75 21.09375 66.75 
z
M 21.140625 -2.640625 
L 60.296875 72.796875 
L 67.4375 72.796875 
L 28.421875 -2.640625 
z
M 52.09375 16.796875 
Q 52.09375 24.515625 55.953125 29.859375 
Q 59.8125 35.203125 67.1875 35.203125 
Q 73.921875 35.203125 78.34375 30.390625 
Q 82.765625 25.59375 82.765625 16.265625 
Q 82.765625 7.171875 78.296875 2.265625 
Q 73.828125 -2.640625 67.234375 -2.640625 
Q 60.75 -2.640625 56.421875 2.21875 
Q 52.09375 7.078125 52.09375 16.796875 
z
M 67.4375 29.15625 
Q 64.109375 29.15625 61.9375 26.3125 
Q 59.765625 23.484375 59.765625 15.921875 
Q 59.765625 9.078125 61.953125 6.25 
Q 64.15625 3.421875 67.390625 3.421875 
Q 70.75 3.421875 72.921875 6.25 
Q 75.09375 9.078125 75.09375 16.609375 
Q 75.09375 23.53125 72.890625 26.34375 
Q 70.703125 29.15625 67.4375 29.15625 
z
" id="ArialMT-37"/>
      <path d="M 12.359375 -21.046875 
L 6.0625 -21.046875 
Q 20.65625 2.390625 20.65625 25.875 
Q 20.65625 35.0625 18.5625 44.09375 
Q 16.890625 51.421875 13.921875 58.15625 
Q 12.015625 62.546875 6.0625 72.796875 
L 12.359375 72.796875 
Q 21.53125 60.546875 25.921875 48.1875 
Q 29.6875 37.546875 29.6875 25.921875 
Q 29.6875 12.75 24.625 0.4375 
Q 19.578125 -11.859375 12.359375 -21.046875 
z
" id="ArialMT-41"/>
     </defs>
     <g style="fill:#262626;" transform="translate(29.039063 472.242187)rotate(-90)scale(0.3 -0.3)">
      <use xlink:href="#ArialMT-65"/>
      <use x="66.683594" xlink:href="#ArialMT-118"/>
      <use x="116.683594" xlink:href="#ArialMT-101"/>
      <use x="172.298828" xlink:href="#ArialMT-114"/>
      <use x="205.599609" xlink:href="#ArialMT-97"/>
      <use x="261.214844" xlink:href="#ArialMT-103"/>
      <use x="316.830078" xlink:href="#ArialMT-101"/>
      <use x="372.445312" xlink:href="#ArialMT-32"/>
      <use x="400.212891" xlink:href="#ArialMT-84"/>
      <use x="461.125" xlink:href="#ArialMT-101"/>
      <use x="516.740234" xlink:href="#ArialMT-115"/>
      <use x="566.740234" xlink:href="#ArialMT-116"/>
      <use x="594.523438" xlink:href="#ArialMT-32"/>
      <use x="622.228516" xlink:href="#ArialMT-65"/>
      <use x="688.927734" xlink:href="#ArialMT-99"/>
      <use x="738.927734" xlink:href="#ArialMT-99"/>
      <use x="788.927734" xlink:href="#ArialMT-117"/>
      <use x="844.542969" xlink:href="#ArialMT-114"/>
      <use x="877.84375" xlink:href="#ArialMT-97"/>
      <use x="933.458984" xlink:href="#ArialMT-99"/>
      <use x="983.458984" xlink:href="#ArialMT-121"/>
      <use x="1033.458984" xlink:href="#ArialMT-32"/>
      <use x="1061.242188" xlink:href="#ArialMT-40"/>
      <use x="1094.542969" xlink:href="#ArialMT-37"/>
      <use x="1183.458984" xlink:href="#ArialMT-41"/>
     </g>
    </g>
   </g>
   <g id="patch_3">
    <path clip-path="url(#p628e35b491)" d="M 149.628835 4547.936719 
L 172.921971 4547.936719 
L 172.921971 21.478355 
L 149.628835 21.478355 
z
" style="fill:#2606c3;opacity:0.9;stroke:#ffffff;stroke-linejoin:miter;"/>
   </g>
   <g id="patch_4">
    <path clip-path="url(#p628e35b491)" d="M 356.678928 4547.936719 
L 379.972063 4547.936719 
L 379.972063 31.485537 
L 356.678928 31.485537 
z
" style="fill:#2606c3;opacity:0.9;stroke:#ffffff;stroke-linejoin:miter;"/>
   </g>
   <g id="patch_5">
    <path clip-path="url(#p628e35b491)" d="M 563.729021 4547.936719 
L 587.022156 4547.936719 
L 587.022156 86.010264 
L 563.729021 86.010264 
z
" style="fill:#2606c3;opacity:0.9;stroke:#ffffff;stroke-linejoin:miter;"/>
   </g>
   <g id="patch_6">
    <path clip-path="url(#p628e35b491)" d="M 770.779114 4547.936719 
L 794.072249 4547.936719 
L 794.072249 78.144537 
L 770.779114 78.144537 
z
" style="fill:#2606c3;opacity:0.9;stroke:#ffffff;stroke-linejoin:miter;"/>
   </g>
   <g id="patch_7">
    <path clip-path="url(#p628e35b491)" d="M 977.829206 4547.936719 
L 1001.122342 4547.936719 
L 1001.122342 97.91181 
L 977.829206 97.91181 
z
" style="fill:#2606c3;opacity:0.9;stroke:#ffffff;stroke-linejoin:miter;"/>
   </g>
   <g id="patch_8">
    <path clip-path="url(#p628e35b491)" d="M 172.921971 4547.936719 
L 196.215106 4547.936719 
L 196.215106 21.470119 
L 172.921971 21.470119 
z
" style="fill:#2606c3;opacity:0.5;stroke:#ffffff;stroke-linejoin:miter;"/>
   </g>
   <g id="patch_9">
    <path clip-path="url(#p628e35b491)" d="M 379.972063 4547.936719 
L 403.265199 4547.936719 
L 403.265199 43.395319 
L 379.972063 43.395319 
z
" style="fill:#2606c3;opacity:0.5;stroke:#ffffff;stroke-linejoin:miter;"/>
   </g>
   <g id="patch_10">
    <path clip-path="url(#p628e35b491)" d="M 587.022156 4547.936719 
L 610.315292 4547.936719 
L 610.315292 201.401719 
L 587.022156 201.401719 
z
" style="fill:#2606c3;opacity:0.5;stroke:#ffffff;stroke-linejoin:miter;"/>
   </g>
   <g id="patch_11">
    <path clip-path="url(#p628e35b491)" d="M 794.072249 4547.936719 
L 817.365384 4547.936719 
L 817.365384 252.183019 
L 794.072249 252.183019 
z
" style="fill:#2606c3;opacity:0.5;stroke:#ffffff;stroke-linejoin:miter;"/>
   </g>
   <g id="patch_12">
    <path clip-path="url(#p628e35b491)" d="M 1001.122342 4547.936719 
L 1024.415477 4547.936719 
L 1024.415477 451.593619 
L 1001.122342 451.593619 
z
" style="fill:#2606c3;opacity:0.5;stroke:#ffffff;stroke-linejoin:miter;"/>
   </g>
   <g id="patch_13">
    <path clip-path="url(#p628e35b491)" d="M 196.215106 4547.936719 
L 219.508242 4547.936719 
L 219.508242 21.158052 
L 196.215106 21.158052 
z
" style="fill:#129ac3;opacity:0.9;stroke:#ffffff;stroke-linejoin:miter;"/>
   </g>
   <g id="patch_14">
    <path clip-path="url(#p628e35b491)" d="M 403.265199 4547.936719 
L 426.558334 4547.936719 
L 426.558334 28.456385 
L 403.265199 28.456385 
z
" style="fill:#129ac3;opacity:0.9;stroke:#ffffff;stroke-linejoin:miter;"/>
   </g>
   <g id="patch_15">
    <path clip-path="url(#p628e35b491)" d="M 610.315292 4547.936719 
L 633.608427 4547.936719 
L 633.608427 30.167719 
L 610.315292 30.167719 
z
" style="fill:#129ac3;opacity:0.9;stroke:#ffffff;stroke-linejoin:miter;"/>
   </g>
   <g id="patch_16">
    <path clip-path="url(#p628e35b491)" d="M 817.365384 4547.936719 
L 840.65852 4547.936719 
L 840.65852 35.352052 
L 817.365384 35.352052 
z
" style="fill:#129ac3;opacity:0.9;stroke:#ffffff;stroke-linejoin:miter;"/>
   </g>
   <g id="patch_17">
    <path clip-path="url(#p628e35b491)" d="M 1024.415477 4547.936719 
L 1047.708613 4547.936719 
L 1047.708613 56.341052 
L 1024.415477 56.341052 
z
" style="fill:#129ac3;opacity:0.9;stroke:#ffffff;stroke-linejoin:miter;"/>
   </g>
   <g id="patch_18">
    <path clip-path="url(#p628e35b491)" d="M 219.508242 4547.936719 
L 242.801377 4547.936719 
L 242.801377 21.172433 
L 219.508242 21.172433 
z
" style="fill:#129ac3;opacity:0.5;stroke:#ffffff;stroke-linejoin:miter;"/>
   </g>
   <g id="patch_19">
    <path clip-path="url(#p628e35b491)" d="M 426.558334 4547.936719 
L 449.85147 4547.936719 
L 449.85147 33.403433 
L 426.558334 33.403433 
z
" style="fill:#129ac3;opacity:0.5;stroke:#ffffff;stroke-linejoin:miter;"/>
   </g>
   <g id="patch_20">
    <path clip-path="url(#p628e35b491)" d="M 633.608427 4547.936719 
L 656.901563 4547.936719 
L 656.901563 72.62029 
L 633.608427 72.62029 
z
" style="fill:#129ac3;opacity:0.5;stroke:#ffffff;stroke-linejoin:miter;"/>
   </g>
   <g id="patch_21">
    <path clip-path="url(#p628e35b491)" d="M 840.65852 4547.936719 
L 863.951655 4547.936719 
L 863.951655 61.554147 
L 840.65852 61.554147 
z
" style="fill:#129ac3;opacity:0.5;stroke:#ffffff;stroke-linejoin:miter;"/>
   </g>
   <g id="patch_22">
    <path clip-path="url(#p628e35b491)" d="M 1047.708613 4547.936719 
L 1071.001748 4547.936719 
L 1071.001748 118.82629 
L 1047.708613 118.82629 
z
" style="fill:#129ac3;opacity:0.5;stroke:#ffffff;stroke-linejoin:miter;"/>
   </g>
   <g id="patch_23">
    <path clip-path="url(#p628e35b491)" d="M 242.801377 4547.936719 
L 266.094512 4547.936719 
L 266.094512 21.032219 
L 242.801377 21.032219 
z
" style="fill:#dc143c;opacity:0.9;stroke:#ffffff;stroke-linejoin:miter;"/>
   </g>
   <g id="patch_24">
    <path clip-path="url(#p628e35b491)" d="M 449.85147 4547.936719 
L 473.144605 4547.936719 
L 473.144605 29.563719 
L 449.85147 29.563719 
z
" style="fill:#dc143c;opacity:0.9;stroke:#ffffff;stroke-linejoin:miter;"/>
   </g>
   <g id="patch_25">
    <path clip-path="url(#p628e35b491)" d="M 656.901563 4547.936719 
L 680.194698 4547.936719 
L 680.194698 40.209219 
L 656.901563 40.209219 
z
" style="fill:#dc143c;opacity:0.9;stroke:#ffffff;stroke-linejoin:miter;"/>
   </g>
   <g id="patch_26">
    <path clip-path="url(#p628e35b491)" d="M 863.951655 4547.936719 
L 887.244791 4547.936719 
L 887.244791 45.116719 
L 863.951655 45.116719 
z
" style="fill:#dc143c;opacity:0.9;stroke:#ffffff;stroke-linejoin:miter;"/>
   </g>
   <g id="patch_27">
    <path clip-path="url(#p628e35b491)" d="M 1071.001748 4547.936719 
L 1094.294883 4547.936719 
L 1094.294883 64.897719 
L 1071.001748 64.897719 
z
" style="fill:#dc143c;opacity:0.9;stroke:#ffffff;stroke-linejoin:miter;"/>
   </g>
   <g id="patch_28">
    <path clip-path="url(#p628e35b491)" d="M 266.094512 4547.936719 
L 289.387648 4547.936719 
L 289.387648 21.560719 
L 266.094512 21.560719 
z
" style="fill:#dc143c;opacity:0.5;stroke:#ffffff;stroke-linejoin:miter;"/>
   </g>
   <g id="patch_29">
    <path clip-path="url(#p628e35b491)" d="M 473.144605 4547.936719 
L 496.437741 4547.936719 
L 496.437741 42.228844 
L 473.144605 42.228844 
z
" style="fill:#dc143c;opacity:0.5;stroke:#ffffff;stroke-linejoin:miter;"/>
   </g>
   <g id="patch_30">
    <path clip-path="url(#p628e35b491)" d="M 680.194698 4547.936719 
L 703.487833 4547.936719 
L 703.487833 102.704344 
L 680.194698 102.704344 
z
" style="fill:#dc143c;opacity:0.5;stroke:#ffffff;stroke-linejoin:miter;"/>
   </g>
   <g id="patch_31">
    <path clip-path="url(#p628e35b491)" d="M 887.244791 4547.936719 
L 910.537926 4547.936719 
L 910.537926 76.430344 
L 887.244791 76.430344 
z
" style="fill:#dc143c;opacity:0.5;stroke:#ffffff;stroke-linejoin:miter;"/>
   </g>
   <g id="patch_32">
    <path clip-path="url(#p628e35b491)" d="M 1094.294883 4547.936719 
L 1117.588019 4547.936719 
L 1117.588019 124.278469 
L 1094.294883 124.278469 
z
" style="fill:#dc143c;opacity:0.5;stroke:#ffffff;stroke-linejoin:miter;"/>
   </g>
   <g id="patch_33">
    <path clip-path="url(#p628e35b491)" d="M 289.387648 4547.936719 
L 312.680783 4547.936719 
L 312.680783 21.017119 
L 289.387648 21.017119 
z
" style="fill:#d6540c;opacity:0.9;stroke:#ffffff;stroke-linejoin:miter;"/>
   </g>
   <g id="patch_34">
    <path clip-path="url(#p628e35b491)" d="M 496.437741 4547.936719 
L 519.730876 4547.936719 
L 519.730876 45.026119 
L 496.437741 45.026119 
z
" style="fill:#d6540c;opacity:0.9;stroke:#ffffff;stroke-linejoin:miter;"/>
   </g>
   <g id="patch_35">
    <path clip-path="url(#p628e35b491)" d="M 703.487833 4547.936719 
L 726.780969 4547.936719 
L 726.780969 46.792819 
L 703.487833 46.792819 
z
" style="fill:#d6540c;opacity:0.9;stroke:#ffffff;stroke-linejoin:miter;"/>
   </g>
   <g id="patch_36">
    <path clip-path="url(#p628e35b491)" d="M 910.537926 4547.936719 
L 933.831062 4547.936719 
L 933.831062 49.284319 
L 910.537926 49.284319 
z
" style="fill:#d6540c;opacity:0.9;stroke:#ffffff;stroke-linejoin:miter;"/>
   </g>
   <g id="patch_37">
    <path clip-path="url(#p628e35b491)" d="M 1117.588019 4547.936719 
L 1140.881154 4547.936719 
L 1140.881154 89.238919 
L 1117.588019 89.238919 
z
" style="fill:#d6540c;opacity:0.9;stroke:#ffffff;stroke-linejoin:miter;"/>
   </g>
   <g id="patch_38">
    <path clip-path="url(#p628e35b491)" d="M 312.680783 4547.936719 
L 335.973919 4547.936719 
L 335.973919 21.470119 
L 312.680783 21.470119 
z
" style="fill:#d6540c;opacity:0.5;stroke:#ffffff;stroke-linejoin:miter;"/>
   </g>
   <g id="patch_39">
    <path clip-path="url(#p628e35b491)" d="M 519.730876 4547.936719 
L 543.024011 4547.936719 
L 543.024011 49.918519 
L 519.730876 49.918519 
z
" style="fill:#d6540c;opacity:0.5;stroke:#ffffff;stroke-linejoin:miter;"/>
   </g>
   <g id="patch_40">
    <path clip-path="url(#p628e35b491)" d="M 726.780969 4547.936719 
L 750.074104 4547.936719 
L 750.074104 81.084919 
L 726.780969 81.084919 
z
" style="fill:#d6540c;opacity:0.5;stroke:#ffffff;stroke-linejoin:miter;"/>
   </g>
   <g id="patch_41">
    <path clip-path="url(#p628e35b491)" d="M 933.831062 4547.936719 
L 957.124197 4547.936719 
L 957.124197 65.773519 
L 933.831062 65.773519 
z
" style="fill:#d6540c;opacity:0.5;stroke:#ffffff;stroke-linejoin:miter;"/>
   </g>
   <g id="patch_42">
    <path clip-path="url(#p628e35b491)" d="M 1140.881154 4547.936719 
L 1164.17429 4547.936719 
L 1164.17429 97.800619 
L 1140.881154 97.800619 
z
" style="fill:#d6540c;opacity:0.5;stroke:#ffffff;stroke-linejoin:miter;"/>
   </g>
   <g id="LineCollection_1">
    <path clip-path="url(#p628e35b491)" d="M 161.275403 21.931355 
L 161.275403 21.025355 
" style="fill:none;stroke:#1a1a1a;stroke-width:1.5;"/>
    <path clip-path="url(#p628e35b491)" d="M 368.325496 32.844537 
L 368.325496 30.126537 
" style="fill:none;stroke:#1a1a1a;stroke-width:1.5;"/>
    <path clip-path="url(#p628e35b491)" d="M 575.375588 121.797264 
L 575.375588 50.223264 
" style="fill:none;stroke:#1a1a1a;stroke-width:1.5;"/>
    <path clip-path="url(#p628e35b491)" d="M 782.425681 100.341537 
L 782.425681 55.947537 
" style="fill:none;stroke:#1a1a1a;stroke-width:1.5;"/>
    <path clip-path="url(#p628e35b491)" d="M 989.475774 116.93781 
L 989.475774 78.88581 
" style="fill:none;stroke:#1a1a1a;stroke-width:1.5;"/>
   </g>
   <g id="LineCollection_2">
    <path clip-path="url(#p628e35b491)" d="M 184.568538 21.923119 
L 184.568538 21.017119 
" style="fill:none;stroke:#1a1a1a;stroke-width:1.5;"/>
    <path clip-path="url(#p628e35b491)" d="M 391.618631 44.301319 
L 391.618631 42.489319 
" style="fill:none;stroke:#1a1a1a;stroke-width:1.5;"/>
    <path clip-path="url(#p628e35b491)" d="M 598.668724 208.196719 
L 598.668724 194.606719 
" style="fill:none;stroke:#1a1a1a;stroke-width:1.5;"/>
    <path clip-path="url(#p628e35b491)" d="M 805.718817 282.534019 
L 805.718817 221.832019 
" style="fill:none;stroke:#1a1a1a;stroke-width:1.5;"/>
    <path clip-path="url(#p628e35b491)" d="M 1012.768909 476.508619 
L 1012.768909 426.678619 
" style="fill:none;stroke:#1a1a1a;stroke-width:1.5;"/>
   </g>
   <g id="LineCollection_3">
    <path clip-path="url(#p628e35b491)" d="M 207.861674 21.611052 
L 207.861674 20.705052 
" style="fill:none;stroke:#1a1a1a;stroke-width:1.5;"/>
    <path clip-path="url(#p628e35b491)" d="M 414.911767 29.362385 
L 414.911767 27.550385 
" style="fill:none;stroke:#1a1a1a;stroke-width:1.5;"/>
    <path clip-path="url(#p628e35b491)" d="M 621.961859 31.073719 
L 621.961859 29.261719 
" style="fill:none;stroke:#1a1a1a;stroke-width:1.5;"/>
    <path clip-path="url(#p628e35b491)" d="M 829.011952 37.164052 
L 829.011952 33.540052 
" style="fill:none;stroke:#1a1a1a;stroke-width:1.5;"/>
    <path clip-path="url(#p628e35b491)" d="M 1036.062045 60.418052 
L 1036.062045 52.264052 
" style="fill:none;stroke:#1a1a1a;stroke-width:1.5;"/>
   </g>
   <g id="LineCollection_4">
    <path clip-path="url(#p628e35b491)" d="M 231.154809 21.625433 
L 231.154809 20.719433 
" style="fill:none;stroke:#1a1a1a;stroke-width:1.5;"/>
    <path clip-path="url(#p628e35b491)" d="M 438.204902 35.215433 
L 438.204902 31.591433 
" style="fill:none;stroke:#1a1a1a;stroke-width:1.5;"/>
    <path clip-path="url(#p628e35b491)" d="M 645.254995 77.15029 
L 645.254995 68.09029 
" style="fill:none;stroke:#1a1a1a;stroke-width:1.5;"/>
    <path clip-path="url(#p628e35b491)" d="M 852.305088 68.349147 
L 852.305088 54.759147 
" style="fill:none;stroke:#1a1a1a;stroke-width:1.5;"/>
    <path clip-path="url(#p628e35b491)" d="M 1059.35518 147.81829 
L 1059.35518 89.83429 
" style="fill:none;stroke:#1a1a1a;stroke-width:1.5;"/>
   </g>
   <g id="LineCollection_5">
    <path clip-path="url(#p628e35b491)" d="M 254.447945 21.938219 
L 254.447945 20.126219 
" style="fill:none;stroke:#1a1a1a;stroke-width:1.5;"/>
    <path clip-path="url(#p628e35b491)" d="M 461.498037 30.922719 
L 461.498037 28.204719 
" style="fill:none;stroke:#1a1a1a;stroke-width:1.5;"/>
    <path clip-path="url(#p628e35b491)" d="M 668.54813 49.722219 
L 668.54813 30.696219 
" style="fill:none;stroke:#1a1a1a;stroke-width:1.5;"/>
    <path clip-path="url(#p628e35b491)" d="M 875.598223 54.629719 
L 875.598223 35.603719 
" style="fill:none;stroke:#1a1a1a;stroke-width:1.5;"/>
    <path clip-path="url(#p628e35b491)" d="M 1082.648316 73.957719 
L 1082.648316 55.837719 
" style="fill:none;stroke:#1a1a1a;stroke-width:1.5;"/>
   </g>
   <g id="LineCollection_6">
    <path clip-path="url(#p628e35b491)" d="M 277.74108 22.013719 
L 277.74108 21.107719 
" style="fill:none;stroke:#1a1a1a;stroke-width:1.5;"/>
    <path clip-path="url(#p628e35b491)" d="M 484.791173 43.134844 
L 484.791173 41.322844 
" style="fill:none;stroke:#1a1a1a;stroke-width:1.5;"/>
    <path clip-path="url(#p628e35b491)" d="M 691.841266 111.764344 
L 691.841266 93.644344 
" style="fill:none;stroke:#1a1a1a;stroke-width:1.5;"/>
    <path clip-path="url(#p628e35b491)" d="M 898.891358 81.413344 
L 898.891358 71.447344 
" style="fill:none;stroke:#1a1a1a;stroke-width:1.5;"/>
    <path clip-path="url(#p628e35b491)" d="M 1105.941451 144.210469 
L 1105.941451 104.346469 
" style="fill:none;stroke:#1a1a1a;stroke-width:1.5;"/>
   </g>
   <g id="LineCollection_7">
    <path clip-path="url(#p628e35b491)" d="M 301.034216 21.470119 
L 301.034216 20.564119 
" style="fill:none;stroke:#1a1a1a;stroke-width:1.5;"/>
    <path clip-path="url(#p628e35b491)" d="M 508.084308 46.385119 
L 508.084308 43.667119 
" style="fill:none;stroke:#1a1a1a;stroke-width:1.5;"/>
    <path clip-path="url(#p628e35b491)" d="M 715.134401 48.604819 
L 715.134401 44.980819 
" style="fill:none;stroke:#1a1a1a;stroke-width:1.5;"/>
    <path clip-path="url(#p628e35b491)" d="M 922.184494 51.096319 
L 922.184494 47.472319 
" style="fill:none;stroke:#1a1a1a;stroke-width:1.5;"/>
    <path clip-path="url(#p628e35b491)" d="M 1129.234587 104.187919 
L 1129.234587 74.289919 
" style="fill:none;stroke:#1a1a1a;stroke-width:1.5;"/>
   </g>
   <g id="LineCollection_8">
    <path clip-path="url(#p628e35b491)" d="M 324.327351 21.923119 
L 324.327351 21.017119 
" style="fill:none;stroke:#1a1a1a;stroke-width:1.5;"/>
    <path clip-path="url(#p628e35b491)" d="M 531.377444 51.277519 
L 531.377444 48.559519 
" style="fill:none;stroke:#1a1a1a;stroke-width:1.5;"/>
    <path clip-path="url(#p628e35b491)" d="M 738.427537 83.349919 
L 738.427537 78.819919 
" style="fill:none;stroke:#1a1a1a;stroke-width:1.5;"/>
    <path clip-path="url(#p628e35b491)" d="M 945.477629 67.132519 
L 945.477629 64.414519 
" style="fill:none;stroke:#1a1a1a;stroke-width:1.5;"/>
    <path clip-path="url(#p628e35b491)" d="M 1152.527722 103.689619 
L 1152.527722 91.911619 
" style="fill:none;stroke:#1a1a1a;stroke-width:1.5;"/>
   </g>
   <g id="line2d_13">
    <defs>
     <path d="M 2.5 0 
L -2.5 -0 
" id="m66b1603efa" style="stroke:#1a1a1a;"/>
    </defs>
    <g clip-path="url(#p628e35b491)">
     <use style="fill:#1a1a1a;stroke:#1a1a1a;" x="161.275403" xlink:href="#m66b1603efa" y="21.931355"/>
     <use style="fill:#1a1a1a;stroke:#1a1a1a;" x="368.325496" xlink:href="#m66b1603efa" y="32.844537"/>
     <use style="fill:#1a1a1a;stroke:#1a1a1a;" x="575.375588" xlink:href="#m66b1603efa" y="121.797264"/>
     <use style="fill:#1a1a1a;stroke:#1a1a1a;" x="782.425681" xlink:href="#m66b1603efa" y="100.341537"/>
     <use style="fill:#1a1a1a;stroke:#1a1a1a;" x="989.475774" xlink:href="#m66b1603efa" y="116.93781"/>
    </g>
   </g>
   <g id="line2d_14">
    <g clip-path="url(#p628e35b491)">
     <use style="fill:#1a1a1a;stroke:#1a1a1a;" x="161.275403" xlink:href="#m66b1603efa" y="21.025355"/>
     <use style="fill:#1a1a1a;stroke:#1a1a1a;" x="368.325496" xlink:href="#m66b1603efa" y="30.126537"/>
     <use style="fill:#1a1a1a;stroke:#1a1a1a;" x="575.375588" xlink:href="#m66b1603efa" y="50.223264"/>
     <use style="fill:#1a1a1a;stroke:#1a1a1a;" x="782.425681" xlink:href="#m66b1603efa" y="55.947537"/>
     <use style="fill:#1a1a1a;stroke:#1a1a1a;" x="989.475774" xlink:href="#m66b1603efa" y="78.88581"/>
    </g>
   </g>
   <g id="line2d_15">
    <g clip-path="url(#p628e35b491)">
     <use style="fill:#1a1a1a;stroke:#1a1a1a;" x="184.568538" xlink:href="#m66b1603efa" y="21.923119"/>
     <use style="fill:#1a1a1a;stroke:#1a1a1a;" x="391.618631" xlink:href="#m66b1603efa" y="44.301319"/>
     <use style="fill:#1a1a1a;stroke:#1a1a1a;" x="598.668724" xlink:href="#m66b1603efa" y="208.196719"/>
     <use style="fill:#1a1a1a;stroke:#1a1a1a;" x="805.718817" xlink:href="#m66b1603efa" y="282.534019"/>
     <use style="fill:#1a1a1a;stroke:#1a1a1a;" x="1012.768909" xlink:href="#m66b1603efa" y="476.508619"/>
    </g>
   </g>
   <g id="line2d_16">
    <g clip-path="url(#p628e35b491)">
     <use style="fill:#1a1a1a;stroke:#1a1a1a;" x="184.568538" xlink:href="#m66b1603efa" y="21.017119"/>
     <use style="fill:#1a1a1a;stroke:#1a1a1a;" x="391.618631" xlink:href="#m66b1603efa" y="42.489319"/>
     <use style="fill:#1a1a1a;stroke:#1a1a1a;" x="598.668724" xlink:href="#m66b1603efa" y="194.606719"/>
     <use style="fill:#1a1a1a;stroke:#1a1a1a;" x="805.718817" xlink:href="#m66b1603efa" y="221.832019"/>
     <use style="fill:#1a1a1a;stroke:#1a1a1a;" x="1012.768909" xlink:href="#m66b1603efa" y="426.678619"/>
    </g>
   </g>
   <g id="line2d_17">
    <g clip-path="url(#p628e35b491)">
     <use style="fill:#1a1a1a;stroke:#1a1a1a;" x="207.861674" xlink:href="#m66b1603efa" y="21.611052"/>
     <use style="fill:#1a1a1a;stroke:#1a1a1a;" x="414.911767" xlink:href="#m66b1603efa" y="29.362385"/>
     <use style="fill:#1a1a1a;stroke:#1a1a1a;" x="621.961859" xlink:href="#m66b1603efa" y="31.073719"/>
     <use style="fill:#1a1a1a;stroke:#1a1a1a;" x="829.011952" xlink:href="#m66b1603efa" y="37.164052"/>
     <use style="fill:#1a1a1a;stroke:#1a1a1a;" x="1036.062045" xlink:href="#m66b1603efa" y="60.418052"/>
    </g>
   </g>
   <g id="line2d_18">
    <g clip-path="url(#p628e35b491)">
     <use style="fill:#1a1a1a;stroke:#1a1a1a;" x="207.861674" xlink:href="#m66b1603efa" y="20.705052"/>
     <use style="fill:#1a1a1a;stroke:#1a1a1a;" x="414.911767" xlink:href="#m66b1603efa" y="27.550385"/>
     <use style="fill:#1a1a1a;stroke:#1a1a1a;" x="621.961859" xlink:href="#m66b1603efa" y="29.261719"/>
     <use style="fill:#1a1a1a;stroke:#1a1a1a;" x="829.011952" xlink:href="#m66b1603efa" y="33.540052"/>
     <use style="fill:#1a1a1a;stroke:#1a1a1a;" x="1036.062045" xlink:href="#m66b1603efa" y="52.264052"/>
    </g>
   </g>
   <g id="line2d_19">
    <g clip-path="url(#p628e35b491)">
     <use style="fill:#1a1a1a;stroke:#1a1a1a;" x="231.154809" xlink:href="#m66b1603efa" y="21.625433"/>
     <use style="fill:#1a1a1a;stroke:#1a1a1a;" x="438.204902" xlink:href="#m66b1603efa" y="35.215433"/>
     <use style="fill:#1a1a1a;stroke:#1a1a1a;" x="645.254995" xlink:href="#m66b1603efa" y="77.15029"/>
     <use style="fill:#1a1a1a;stroke:#1a1a1a;" x="852.305088" xlink:href="#m66b1603efa" y="68.349147"/>
     <use style="fill:#1a1a1a;stroke:#1a1a1a;" x="1059.35518" xlink:href="#m66b1603efa" y="147.81829"/>
    </g>
   </g>
   <g id="line2d_20">
    <g clip-path="url(#p628e35b491)">
     <use style="fill:#1a1a1a;stroke:#1a1a1a;" x="231.154809" xlink:href="#m66b1603efa" y="20.719433"/>
     <use style="fill:#1a1a1a;stroke:#1a1a1a;" x="438.204902" xlink:href="#m66b1603efa" y="31.591433"/>
     <use style="fill:#1a1a1a;stroke:#1a1a1a;" x="645.254995" xlink:href="#m66b1603efa" y="68.09029"/>
     <use style="fill:#1a1a1a;stroke:#1a1a1a;" x="852.305088" xlink:href="#m66b1603efa" y="54.759147"/>
     <use style="fill:#1a1a1a;stroke:#1a1a1a;" x="1059.35518" xlink:href="#m66b1603efa" y="89.83429"/>
    </g>
   </g>
   <g id="line2d_21">
    <g clip-path="url(#p628e35b491)">
     <use style="fill:#1a1a1a;stroke:#1a1a1a;" x="254.447945" xlink:href="#m66b1603efa" y="21.938219"/>
     <use style="fill:#1a1a1a;stroke:#1a1a1a;" x="461.498037" xlink:href="#m66b1603efa" y="30.922719"/>
     <use style="fill:#1a1a1a;stroke:#1a1a1a;" x="668.54813" xlink:href="#m66b1603efa" y="49.722219"/>
     <use style="fill:#1a1a1a;stroke:#1a1a1a;" x="875.598223" xlink:href="#m66b1603efa" y="54.629719"/>
     <use style="fill:#1a1a1a;stroke:#1a1a1a;" x="1082.648316" xlink:href="#m66b1603efa" y="73.957719"/>
    </g>
   </g>
   <g id="line2d_22">
    <g clip-path="url(#p628e35b491)">
     <use style="fill:#1a1a1a;stroke:#1a1a1a;" x="254.447945" xlink:href="#m66b1603efa" y="20.126219"/>
     <use style="fill:#1a1a1a;stroke:#1a1a1a;" x="461.498037" xlink:href="#m66b1603efa" y="28.204719"/>
     <use style="fill:#1a1a1a;stroke:#1a1a1a;" x="668.54813" xlink:href="#m66b1603efa" y="30.696219"/>
     <use style="fill:#1a1a1a;stroke:#1a1a1a;" x="875.598223" xlink:href="#m66b1603efa" y="35.603719"/>
     <use style="fill:#1a1a1a;stroke:#1a1a1a;" x="1082.648316" xlink:href="#m66b1603efa" y="55.837719"/>
    </g>
   </g>
   <g id="line2d_23">
    <g clip-path="url(#p628e35b491)">
     <use style="fill:#1a1a1a;stroke:#1a1a1a;" x="277.74108" xlink:href="#m66b1603efa" y="22.013719"/>
     <use style="fill:#1a1a1a;stroke:#1a1a1a;" x="484.791173" xlink:href="#m66b1603efa" y="43.134844"/>
     <use style="fill:#1a1a1a;stroke:#1a1a1a;" x="691.841266" xlink:href="#m66b1603efa" y="111.764344"/>
     <use style="fill:#1a1a1a;stroke:#1a1a1a;" x="898.891358" xlink:href="#m66b1603efa" y="81.413344"/>
     <use style="fill:#1a1a1a;stroke:#1a1a1a;" x="1105.941451" xlink:href="#m66b1603efa" y="144.210469"/>
    </g>
   </g>
   <g id="line2d_24">
    <g clip-path="url(#p628e35b491)">
     <use style="fill:#1a1a1a;stroke:#1a1a1a;" x="277.74108" xlink:href="#m66b1603efa" y="21.107719"/>
     <use style="fill:#1a1a1a;stroke:#1a1a1a;" x="484.791173" xlink:href="#m66b1603efa" y="41.322844"/>
     <use style="fill:#1a1a1a;stroke:#1a1a1a;" x="691.841266" xlink:href="#m66b1603efa" y="93.644344"/>
     <use style="fill:#1a1a1a;stroke:#1a1a1a;" x="898.891358" xlink:href="#m66b1603efa" y="71.447344"/>
     <use style="fill:#1a1a1a;stroke:#1a1a1a;" x="1105.941451" xlink:href="#m66b1603efa" y="104.346469"/>
    </g>
   </g>
   <g id="line2d_25">
    <g clip-path="url(#p628e35b491)">
     <use style="fill:#1a1a1a;stroke:#1a1a1a;" x="301.034216" xlink:href="#m66b1603efa" y="21.470119"/>
     <use style="fill:#1a1a1a;stroke:#1a1a1a;" x="508.084308" xlink:href="#m66b1603efa" y="46.385119"/>
     <use style="fill:#1a1a1a;stroke:#1a1a1a;" x="715.134401" xlink:href="#m66b1603efa" y="48.604819"/>
     <use style="fill:#1a1a1a;stroke:#1a1a1a;" x="922.184494" xlink:href="#m66b1603efa" y="51.096319"/>
     <use style="fill:#1a1a1a;stroke:#1a1a1a;" x="1129.234587" xlink:href="#m66b1603efa" y="104.187919"/>
    </g>
   </g>
   <g id="line2d_26">
    <g clip-path="url(#p628e35b491)">
     <use style="fill:#1a1a1a;stroke:#1a1a1a;" x="301.034216" xlink:href="#m66b1603efa" y="20.564119"/>
     <use style="fill:#1a1a1a;stroke:#1a1a1a;" x="508.084308" xlink:href="#m66b1603efa" y="43.667119"/>
     <use style="fill:#1a1a1a;stroke:#1a1a1a;" x="715.134401" xlink:href="#m66b1603efa" y="44.980819"/>
     <use style="fill:#1a1a1a;stroke:#1a1a1a;" x="922.184494" xlink:href="#m66b1603efa" y="47.472319"/>
     <use style="fill:#1a1a1a;stroke:#1a1a1a;" x="1129.234587" xlink:href="#m66b1603efa" y="74.289919"/>
    </g>
   </g>
   <g id="line2d_27">
    <g clip-path="url(#p628e35b491)">
     <use style="fill:#1a1a1a;stroke:#1a1a1a;" x="324.327351" xlink:href="#m66b1603efa" y="21.923119"/>
     <use style="fill:#1a1a1a;stroke:#1a1a1a;" x="531.377444" xlink:href="#m66b1603efa" y="51.277519"/>
     <use style="fill:#1a1a1a;stroke:#1a1a1a;" x="738.427537" xlink:href="#m66b1603efa" y="83.349919"/>
     <use style="fill:#1a1a1a;stroke:#1a1a1a;" x="945.477629" xlink:href="#m66b1603efa" y="67.132519"/>
     <use style="fill:#1a1a1a;stroke:#1a1a1a;" x="1152.527722" xlink:href="#m66b1603efa" y="103.689619"/>
    </g>
   </g>
   <g id="line2d_28">
    <g clip-path="url(#p628e35b491)">
     <use style="fill:#1a1a1a;stroke:#1a1a1a;" x="324.327351" xlink:href="#m66b1603efa" y="21.017119"/>
     <use style="fill:#1a1a1a;stroke:#1a1a1a;" x="531.377444" xlink:href="#m66b1603efa" y="48.559519"/>
     <use style="fill:#1a1a1a;stroke:#1a1a1a;" x="738.427537" xlink:href="#m66b1603efa" y="78.819919"/>
     <use style="fill:#1a1a1a;stroke:#1a1a1a;" x="945.477629" xlink:href="#m66b1603efa" y="64.414519"/>
     <use style="fill:#1a1a1a;stroke:#1a1a1a;" x="1152.527722" xlink:href="#m66b1603efa" y="91.911619"/>
    </g>
   </g>
   <g id="patch_43">
    <path d="M 98.901563 561.536719 
L 98.901563 17.936719 
" style="fill:none;stroke:#cccccc;stroke-linecap:square;stroke-linejoin:miter;stroke-width:1.25;"/>
   </g>
   <g id="patch_44">
    <path d="M 1214.901562 561.536719 
L 1214.901562 17.936719 
" style="fill:none;stroke:#cccccc;stroke-linecap:square;stroke-linejoin:miter;stroke-width:1.25;"/>
   </g>
   <g id="patch_45">
    <path d="M 98.901563 561.536719 
L 1214.901563 561.536719 
" style="fill:none;stroke:#cccccc;stroke-linecap:square;stroke-linejoin:miter;stroke-width:1.25;"/>
   </g>
   <g id="patch_46">
    <path d="M 98.901563 17.936719 
L 1214.901563 17.936719 
" style="fill:none;stroke:#cccccc;stroke-linecap:square;stroke-linejoin:miter;stroke-width:1.25;"/>
   </g>
   <g id="legend_1">
    <g id="patch_47">
     <path d="M 112.901563 807.104219 
L 1200.901562 807.104219 
L 1200.901562 657.076719 
L 112.901563 657.076719 
z
" style="fill:#ffffff;opacity:0.8;stroke:#cccccc;stroke-linejoin:miter;"/>
    </g>
    <g id="patch_48">
     <path d="M 124.101563 688.318594 
L 180.101563 688.318594 
L 180.101563 668.718594 
L 124.101563 668.718594 
z
" style="fill:#2606c3;opacity:0.9;stroke:#ffffff;stroke-linejoin:miter;"/>
    </g>
    <g id="text_15">
     <!-- DHP Softmax: 98.23 -->
     <defs>
      <path d="M 7.71875 0 
L 7.71875 71.578125 
L 32.375 71.578125 
Q 40.71875 71.578125 45.125 70.5625 
Q 51.265625 69.140625 55.609375 65.4375 
Q 61.28125 60.640625 64.078125 53.1875 
Q 66.890625 45.75 66.890625 36.1875 
Q 66.890625 28.03125 64.984375 21.734375 
Q 63.09375 15.4375 60.109375 11.296875 
Q 57.125 7.171875 53.578125 4.796875 
Q 50.046875 2.4375 45.046875 1.21875 
Q 40.046875 0 33.546875 0 
z
M 17.1875 8.453125 
L 32.46875 8.453125 
Q 39.546875 8.453125 43.578125 9.765625 
Q 47.609375 11.078125 50 13.484375 
Q 53.375 16.84375 55.25 22.53125 
Q 57.125 28.21875 57.125 36.328125 
Q 57.125 47.5625 53.4375 53.59375 
Q 49.75 59.625 44.484375 61.671875 
Q 40.671875 63.140625 32.234375 63.140625 
L 17.1875 63.140625 
z
" id="ArialMT-68"/>
      <path d="M 8.015625 0 
L 8.015625 71.578125 
L 17.484375 71.578125 
L 17.484375 42.1875 
L 54.6875 42.1875 
L 54.6875 71.578125 
L 64.15625 71.578125 
L 64.15625 0 
L 54.6875 0 
L 54.6875 33.734375 
L 17.484375 33.734375 
L 17.484375 0 
z
" id="ArialMT-72"/>
      <path d="M 7.71875 0 
L 7.71875 71.578125 
L 34.71875 71.578125 
Q 41.84375 71.578125 45.609375 70.90625 
Q 50.875 70.015625 54.4375 67.546875 
Q 58.015625 65.09375 60.1875 60.640625 
Q 62.359375 56.203125 62.359375 50.875 
Q 62.359375 41.75 56.546875 35.421875 
Q 50.734375 29.109375 35.546875 29.109375 
L 17.1875 29.109375 
L 17.1875 0 
z
M 17.1875 37.546875 
L 35.6875 37.546875 
Q 44.875 37.546875 48.734375 40.96875 
Q 52.59375 44.390625 52.59375 50.59375 
Q 52.59375 55.078125 50.3125 58.265625 
Q 48.046875 61.46875 44.34375 62.5 
Q 41.9375 63.140625 35.5 63.140625 
L 17.1875 63.140625 
z
" id="ArialMT-80"/>
      <path d="M 4.5 23 
L 13.421875 23.78125 
Q 14.0625 18.40625 16.375 14.96875 
Q 18.703125 11.53125 23.578125 9.40625 
Q 28.46875 7.28125 34.578125 7.28125 
Q 39.984375 7.28125 44.140625 8.890625 
Q 48.296875 10.5 50.3125 13.296875 
Q 52.34375 16.109375 52.34375 19.4375 
Q 52.34375 22.796875 50.390625 25.3125 
Q 48.4375 27.828125 43.953125 29.546875 
Q 41.0625 30.671875 31.203125 33.03125 
Q 21.34375 35.40625 17.390625 37.5 
Q 12.25 40.1875 9.734375 44.15625 
Q 7.234375 48.140625 7.234375 53.078125 
Q 7.234375 58.5 10.296875 63.203125 
Q 13.375 67.921875 19.28125 70.359375 
Q 25.203125 72.796875 32.421875 72.796875 
Q 40.375 72.796875 46.453125 70.234375 
Q 52.546875 67.671875 55.8125 62.6875 
Q 59.078125 57.71875 59.328125 51.421875 
L 50.25 50.734375 
Q 49.515625 57.515625 45.28125 60.984375 
Q 41.0625 64.453125 32.8125 64.453125 
Q 24.21875 64.453125 20.28125 61.296875 
Q 16.359375 58.15625 16.359375 53.71875 
Q 16.359375 49.859375 19.140625 47.359375 
Q 21.875 44.875 33.421875 42.265625 
Q 44.96875 39.65625 49.265625 37.703125 
Q 55.515625 34.8125 58.484375 30.390625 
Q 61.46875 25.984375 61.46875 20.21875 
Q 61.46875 14.5 58.203125 9.4375 
Q 54.9375 4.390625 48.796875 1.578125 
Q 42.671875 -1.21875 35.015625 -1.21875 
Q 25.296875 -1.21875 18.71875 1.609375 
Q 12.15625 4.4375 8.421875 10.125 
Q 4.6875 15.828125 4.5 23 
z
" id="ArialMT-83"/>
      <path d="M 0.734375 0 
L 19.671875 26.953125 
L 2.15625 51.859375 
L 13.140625 51.859375 
L 21.09375 39.703125 
Q 23.34375 36.234375 24.703125 33.890625 
Q 26.859375 37.109375 28.65625 39.59375 
L 37.40625 51.859375 
L 47.90625 51.859375 
L 29.984375 27.4375 
L 49.265625 0 
L 38.484375 0 
L 27.828125 16.109375 
L 25 20.453125 
L 11.375 0 
z
" id="ArialMT-120"/>
      <path d="M 9.03125 41.84375 
L 9.03125 51.859375 
L 19.046875 51.859375 
L 19.046875 41.84375 
z
M 9.03125 0 
L 9.03125 10.015625 
L 19.046875 10.015625 
L 19.046875 0 
z
" id="ArialMT-58"/>
      <path d="M 9.078125 0 
L 9.078125 10.015625 
L 19.09375 10.015625 
L 19.09375 0 
z
" id="ArialMT-46"/>
     </defs>
     <g style="fill:#262626;" transform="translate(202.501563 688.318594)scale(0.28 -0.28)">
      <use xlink:href="#ArialMT-68"/>
      <use x="72.216797" xlink:href="#ArialMT-72"/>
      <use x="144.433594" xlink:href="#ArialMT-80"/>
      <use x="211.117188" xlink:href="#ArialMT-32"/>
      <use x="238.900391" xlink:href="#ArialMT-83"/>
      <use x="305.599609" xlink:href="#ArialMT-111"/>
      <use x="361.214844" xlink:href="#ArialMT-102"/>
      <use x="388.998047" xlink:href="#ArialMT-116"/>
      <use x="416.78125" xlink:href="#ArialMT-109"/>
      <use x="500.082031" xlink:href="#ArialMT-97"/>
      <use x="555.697266" xlink:href="#ArialMT-120"/>
      <use x="605.697266" xlink:href="#ArialMT-58"/>
      <use x="633.480469" xlink:href="#ArialMT-32"/>
      <use x="661.263672" xlink:href="#ArialMT-57"/>
      <use x="716.878906" xlink:href="#ArialMT-56"/>
      <use x="772.494141" xlink:href="#ArialMT-46"/>
      <use x="800.277344" xlink:href="#ArialMT-50"/>
      <use x="855.892578" xlink:href="#ArialMT-51"/>
     </g>
    </g>
    <g id="patch_49">
     <path d="M 124.101563 722.325469 
L 180.101563 722.325469 
L 180.101563 702.725469 
L 124.101563 702.725469 
z
" style="fill:#2606c3;opacity:0.5;stroke:#ffffff;stroke-linejoin:miter;"/>
    </g>
    <g id="text_16">
     <!-- Finetune: 90.43 -->
     <defs>
      <path d="M 8.203125 0 
L 8.203125 71.578125 
L 56.5 71.578125 
L 56.5 63.140625 
L 17.671875 63.140625 
L 17.671875 40.96875 
L 51.265625 40.96875 
L 51.265625 32.515625 
L 17.671875 32.515625 
L 17.671875 0 
z
" id="ArialMT-70"/>
      <path d="M 6.640625 61.46875 
L 6.640625 71.578125 
L 15.4375 71.578125 
L 15.4375 61.46875 
z
M 6.640625 0 
L 6.640625 51.859375 
L 15.4375 51.859375 
L 15.4375 0 
z
" id="ArialMT-105"/>
      <path d="M 6.59375 0 
L 6.59375 51.859375 
L 14.5 51.859375 
L 14.5 44.484375 
Q 20.21875 53.03125 31 53.03125 
Q 35.6875 53.03125 39.625 51.34375 
Q 43.5625 49.65625 45.515625 46.921875 
Q 47.46875 44.1875 48.25 40.4375 
Q 48.734375 37.984375 48.734375 31.890625 
L 48.734375 0 
L 39.9375 0 
L 39.9375 31.546875 
Q 39.9375 36.921875 38.90625 39.578125 
Q 37.890625 42.234375 35.28125 43.8125 
Q 32.671875 45.40625 29.15625 45.40625 
Q 23.53125 45.40625 19.453125 41.84375 
Q 15.375 38.28125 15.375 28.328125 
L 15.375 0 
z
" id="ArialMT-110"/>
     </defs>
     <g style="fill:#262626;" transform="translate(202.501563 722.325469)scale(0.28 -0.28)">
      <use xlink:href="#ArialMT-70"/>
      <use x="61.083984" xlink:href="#ArialMT-105"/>
      <use x="83.300781" xlink:href="#ArialMT-110"/>
      <use x="138.916016" xlink:href="#ArialMT-101"/>
      <use x="194.53125" xlink:href="#ArialMT-116"/>
      <use x="222.314453" xlink:href="#ArialMT-117"/>
      <use x="277.929688" xlink:href="#ArialMT-110"/>
      <use x="333.544922" xlink:href="#ArialMT-101"/>
      <use x="389.160156" xlink:href="#ArialMT-58"/>
      <use x="416.943359" xlink:href="#ArialMT-32"/>
      <use x="444.726562" xlink:href="#ArialMT-57"/>
      <use x="500.341797" xlink:href="#ArialMT-48"/>
      <use x="555.957031" xlink:href="#ArialMT-46"/>
      <use x="583.740234" xlink:href="#ArialMT-52"/>
      <use x="639.355469" xlink:href="#ArialMT-51"/>
     </g>
    </g>
    <g id="patch_50">
     <path d="M 124.101563 756.332344 
L 180.101563 756.332344 
L 180.101563 736.732344 
L 124.101563 736.732344 
z
" style="fill:#129ac3;opacity:0.9;stroke:#ffffff;stroke-linejoin:miter;"/>
    </g>
    <g id="text_17">
     <!-- DHP Softmax + SI: 99.15 -->
     <defs>
      <path d="M 25.046875 11.578125 
L 25.046875 31.203125 
L 5.5625 31.203125 
L 5.5625 39.40625 
L 25.046875 39.40625 
L 25.046875 58.890625 
L 33.34375 58.890625 
L 33.34375 39.40625 
L 52.828125 39.40625 
L 52.828125 31.203125 
L 33.34375 31.203125 
L 33.34375 11.578125 
z
" id="ArialMT-43"/>
      <path d="M 9.328125 0 
L 9.328125 71.578125 
L 18.796875 71.578125 
L 18.796875 0 
z
" id="ArialMT-73"/>
     </defs>
     <g style="fill:#262626;" transform="translate(202.501563 756.332344)scale(0.28 -0.28)">
      <use xlink:href="#ArialMT-68"/>
      <use x="72.216797" xlink:href="#ArialMT-72"/>
      <use x="144.433594" xlink:href="#ArialMT-80"/>
      <use x="211.117188" xlink:href="#ArialMT-32"/>
      <use x="238.900391" xlink:href="#ArialMT-83"/>
      <use x="305.599609" xlink:href="#ArialMT-111"/>
      <use x="361.214844" xlink:href="#ArialMT-102"/>
      <use x="388.998047" xlink:href="#ArialMT-116"/>
      <use x="416.78125" xlink:href="#ArialMT-109"/>
      <use x="500.082031" xlink:href="#ArialMT-97"/>
      <use x="555.697266" xlink:href="#ArialMT-120"/>
      <use x="605.697266" xlink:href="#ArialMT-32"/>
      <use x="633.480469" xlink:href="#ArialMT-43"/>
      <use x="691.878906" xlink:href="#ArialMT-32"/>
      <use x="719.662109" xlink:href="#ArialMT-83"/>
      <use x="786.361328" xlink:href="#ArialMT-73"/>
      <use x="814.144531" xlink:href="#ArialMT-58"/>
      <use x="841.927734" xlink:href="#ArialMT-32"/>
      <use x="869.710938" xlink:href="#ArialMT-57"/>
      <use x="925.326172" xlink:href="#ArialMT-57"/>
      <use x="980.941406" xlink:href="#ArialMT-46"/>
      <use x="1008.724609" xlink:href="#ArialMT-49"/>
      <use x="1064.339844" xlink:href="#ArialMT-53"/>
     </g>
    </g>
    <g id="patch_51">
     <path d="M 124.101563 790.339219 
L 180.101563 790.339219 
L 180.101563 770.739219 
L 124.101563 770.739219 
z
" style="fill:#129ac3;opacity:0.5;stroke:#ffffff;stroke-linejoin:miter;"/>
    </g>
    <g id="text_18">
     <!-- SI: 97.77 -->
     <defs>
      <path d="M 4.734375 62.203125 
L 4.734375 70.65625 
L 51.078125 70.65625 
L 51.078125 63.8125 
Q 44.234375 56.546875 37.515625 44.484375 
Q 30.8125 32.421875 27.15625 19.671875 
Q 24.515625 10.6875 23.78125 0 
L 14.75 0 
Q 14.890625 8.453125 18.0625 20.40625 
Q 21.234375 32.375 27.171875 43.484375 
Q 33.109375 54.59375 39.796875 62.203125 
z
" id="ArialMT-55"/>
     </defs>
     <g style="fill:#262626;" transform="translate(202.501563 790.339219)scale(0.28 -0.28)">
      <use xlink:href="#ArialMT-83"/>
      <use x="66.699219" xlink:href="#ArialMT-73"/>
      <use x="94.482422" xlink:href="#ArialMT-58"/>
      <use x="122.265625" xlink:href="#ArialMT-32"/>
      <use x="150.048828" xlink:href="#ArialMT-57"/>
      <use x="205.664062" xlink:href="#ArialMT-55"/>
      <use x="261.279297" xlink:href="#ArialMT-46"/>
      <use x="289.0625" xlink:href="#ArialMT-55"/>
      <use x="344.677734" xlink:href="#ArialMT-55"/>
     </g>
    </g>
    <g id="patch_52">
     <path d="M 670.139687 688.318594 
L 726.139687 688.318594 
L 726.139687 668.718594 
L 670.139687 668.718594 
z
" style="fill:#dc143c;opacity:0.9;stroke:#ffffff;stroke-linejoin:miter;"/>
    </g>
    <g id="text_19">
     <!-- DHP Softmax + Online EWC: 98.96 -->
     <defs>
      <path d="M 6.390625 0 
L 6.390625 71.578125 
L 15.1875 71.578125 
L 15.1875 0 
z
" id="ArialMT-108"/>
      <path d="M 7.90625 0 
L 7.90625 71.578125 
L 59.671875 71.578125 
L 59.671875 63.140625 
L 17.390625 63.140625 
L 17.390625 41.21875 
L 56.984375 41.21875 
L 56.984375 32.8125 
L 17.390625 32.8125 
L 17.390625 8.453125 
L 61.328125 8.453125 
L 61.328125 0 
z
" id="ArialMT-69"/>
      <path d="M 20.21875 0 
L 1.21875 71.578125 
L 10.9375 71.578125 
L 21.828125 24.65625 
Q 23.578125 17.28125 24.859375 10.015625 
Q 27.59375 21.484375 28.078125 23.25 
L 41.703125 71.578125 
L 53.125 71.578125 
L 63.375 35.359375 
Q 67.234375 21.875 68.953125 10.015625 
Q 70.3125 16.796875 72.515625 25.59375 
L 83.734375 71.578125 
L 93.265625 71.578125 
L 73.640625 0 
L 64.5 0 
L 49.421875 54.546875 
Q 47.515625 61.375 47.171875 62.9375 
Q 46.046875 58.015625 45.0625 54.546875 
L 29.890625 0 
z
" id="ArialMT-87"/>
      <path d="M 58.796875 25.09375 
L 68.265625 22.703125 
Q 65.28125 11.03125 57.546875 4.90625 
Q 49.8125 -1.21875 38.625 -1.21875 
Q 27.046875 -1.21875 19.796875 3.484375 
Q 12.546875 8.203125 8.765625 17.140625 
Q 4.984375 26.078125 4.984375 36.328125 
Q 4.984375 47.515625 9.25 55.828125 
Q 13.53125 64.15625 21.40625 68.46875 
Q 29.296875 72.796875 38.765625 72.796875 
Q 49.515625 72.796875 56.828125 67.328125 
Q 64.15625 61.859375 67.046875 51.953125 
L 57.71875 49.75 
Q 55.21875 57.5625 50.484375 61.125 
Q 45.75 64.703125 38.578125 64.703125 
Q 30.328125 64.703125 24.78125 60.734375 
Q 19.234375 56.78125 16.984375 50.109375 
Q 14.75 43.453125 14.75 36.375 
Q 14.75 27.25 17.40625 20.4375 
Q 20.0625 13.625 25.671875 10.25 
Q 31.296875 6.890625 37.84375 6.890625 
Q 45.796875 6.890625 51.3125 11.46875 
Q 56.84375 16.0625 58.796875 25.09375 
z
" id="ArialMT-67"/>
     </defs>
     <g style="fill:#262626;" transform="translate(748.539687 688.318594)scale(0.28 -0.28)">
      <use xlink:href="#ArialMT-68"/>
      <use x="72.216797" xlink:href="#ArialMT-72"/>
      <use x="144.433594" xlink:href="#ArialMT-80"/>
      <use x="211.117188" xlink:href="#ArialMT-32"/>
      <use x="238.900391" xlink:href="#ArialMT-83"/>
      <use x="305.599609" xlink:href="#ArialMT-111"/>
      <use x="361.214844" xlink:href="#ArialMT-102"/>
      <use x="388.998047" xlink:href="#ArialMT-116"/>
      <use x="416.78125" xlink:href="#ArialMT-109"/>
      <use x="500.082031" xlink:href="#ArialMT-97"/>
      <use x="555.697266" xlink:href="#ArialMT-120"/>
      <use x="605.697266" xlink:href="#ArialMT-32"/>
      <use x="633.480469" xlink:href="#ArialMT-43"/>
      <use x="691.878906" xlink:href="#ArialMT-32"/>
      <use x="719.662109" xlink:href="#ArialMT-79"/>
      <use x="797.445312" xlink:href="#ArialMT-110"/>
      <use x="853.060547" xlink:href="#ArialMT-108"/>
      <use x="875.277344" xlink:href="#ArialMT-105"/>
      <use x="897.494141" xlink:href="#ArialMT-110"/>
      <use x="953.109375" xlink:href="#ArialMT-101"/>
      <use x="1008.724609" xlink:href="#ArialMT-32"/>
      <use x="1036.507812" xlink:href="#ArialMT-69"/>
      <use x="1103.207031" xlink:href="#ArialMT-87"/>
      <use x="1197.591797" xlink:href="#ArialMT-67"/>
      <use x="1269.808594" xlink:href="#ArialMT-58"/>
      <use x="1297.591797" xlink:href="#ArialMT-32"/>
      <use x="1325.375" xlink:href="#ArialMT-57"/>
      <use x="1380.990234" xlink:href="#ArialMT-56"/>
      <use x="1436.605469" xlink:href="#ArialMT-46"/>
      <use x="1464.388672" xlink:href="#ArialMT-57"/>
      <use x="1520.003906" xlink:href="#ArialMT-54"/>
     </g>
    </g>
    <g id="patch_53">
     <path d="M 670.139687 722.325469 
L 726.139687 722.325469 
L 726.139687 702.725469 
L 670.139687 702.725469 
z
" style="fill:#dc143c;opacity:0.5;stroke:#ffffff;stroke-linejoin:miter;"/>
    </g>
    <g id="text_20">
     <!-- Online EWC: 97.65 -->
     <g style="fill:#262626;" transform="translate(748.539687 722.325469)scale(0.28 -0.28)">
      <use xlink:href="#ArialMT-79"/>
      <use x="77.783203" xlink:href="#ArialMT-110"/>
      <use x="133.398438" xlink:href="#ArialMT-108"/>
      <use x="155.615234" xlink:href="#ArialMT-105"/>
      <use x="177.832031" xlink:href="#ArialMT-110"/>
      <use x="233.447266" xlink:href="#ArialMT-101"/>
      <use x="289.0625" xlink:href="#ArialMT-32"/>
      <use x="316.845703" xlink:href="#ArialMT-69"/>
      <use x="383.544922" xlink:href="#ArialMT-87"/>
      <use x="477.929688" xlink:href="#ArialMT-67"/>
      <use x="550.146484" xlink:href="#ArialMT-58"/>
      <use x="577.929688" xlink:href="#ArialMT-32"/>
      <use x="605.712891" xlink:href="#ArialMT-57"/>
      <use x="661.328125" xlink:href="#ArialMT-55"/>
      <use x="716.943359" xlink:href="#ArialMT-46"/>
      <use x="744.726562" xlink:href="#ArialMT-54"/>
      <use x="800.341797" xlink:href="#ArialMT-53"/>
     </g>
    </g>
    <g id="patch_54">
     <path d="M 670.139687 756.332344 
L 726.139687 756.332344 
L 726.139687 736.732344 
L 670.139687 736.732344 
z
" style="fill:#d6540c;opacity:0.9;stroke:#ffffff;stroke-linejoin:miter;"/>
    </g>
    <g id="text_21">
     <!-- DHP Softmax + MAS: 98.43 -->
     <defs>
      <path d="M 7.421875 0 
L 7.421875 71.578125 
L 21.6875 71.578125 
L 38.625 20.90625 
Q 40.96875 13.8125 42.046875 10.296875 
Q 43.265625 14.203125 45.84375 21.78125 
L 62.984375 71.578125 
L 75.734375 71.578125 
L 75.734375 0 
L 66.609375 0 
L 66.609375 59.90625 
L 45.796875 0 
L 37.25 0 
L 16.546875 60.9375 
L 16.546875 0 
z
" id="ArialMT-77"/>
     </defs>
     <g style="fill:#262626;" transform="translate(748.539687 756.332344)scale(0.28 -0.28)">
      <use xlink:href="#ArialMT-68"/>
      <use x="72.216797" xlink:href="#ArialMT-72"/>
      <use x="144.433594" xlink:href="#ArialMT-80"/>
      <use x="211.117188" xlink:href="#ArialMT-32"/>
      <use x="238.900391" xlink:href="#ArialMT-83"/>
      <use x="305.599609" xlink:href="#ArialMT-111"/>
      <use x="361.214844" xlink:href="#ArialMT-102"/>
      <use x="388.998047" xlink:href="#ArialMT-116"/>
      <use x="416.78125" xlink:href="#ArialMT-109"/>
      <use x="500.082031" xlink:href="#ArialMT-97"/>
      <use x="555.697266" xlink:href="#ArialMT-120"/>
      <use x="605.697266" xlink:href="#ArialMT-32"/>
      <use x="633.480469" xlink:href="#ArialMT-43"/>
      <use x="691.878906" xlink:href="#ArialMT-32"/>
      <use x="719.662109" xlink:href="#ArialMT-77"/>
      <use x="802.962891" xlink:href="#ArialMT-65"/>
      <use x="869.662109" xlink:href="#ArialMT-83"/>
      <use x="936.361328" xlink:href="#ArialMT-58"/>
      <use x="964.144531" xlink:href="#ArialMT-32"/>
      <use x="991.927734" xlink:href="#ArialMT-57"/>
      <use x="1047.542969" xlink:href="#ArialMT-56"/>
      <use x="1103.158203" xlink:href="#ArialMT-46"/>
      <use x="1130.941406" xlink:href="#ArialMT-52"/>
      <use x="1186.556641" xlink:href="#ArialMT-51"/>
     </g>
    </g>
    <g id="patch_55">
     <path d="M 670.139687 790.339219 
L 726.139687 790.339219 
L 726.139687 770.739219 
L 670.139687 770.739219 
z
" style="fill:#d6540c;opacity:0.5;stroke:#ffffff;stroke-linejoin:miter;"/>
    </g>
    <g id="text_22">
     <!-- MAS: 98.24 -->
     <g style="fill:#262626;" transform="translate(748.539687 790.339219)scale(0.28 -0.28)">
      <use xlink:href="#ArialMT-77"/>
      <use x="83.300781" xlink:href="#ArialMT-65"/>
      <use x="150" xlink:href="#ArialMT-83"/>
      <use x="216.699219" xlink:href="#ArialMT-58"/>
      <use x="244.482422" xlink:href="#ArialMT-32"/>
      <use x="272.265625" xlink:href="#ArialMT-57"/>
      <use x="327.880859" xlink:href="#ArialMT-56"/>
      <use x="383.496094" xlink:href="#ArialMT-46"/>
      <use x="411.279297" xlink:href="#ArialMT-50"/>
      <use x="466.894531" xlink:href="#ArialMT-52"/>
     </g>
    </g>
   </g>
  </g>
 </g>
 <defs>
  <clipPath id="p628e35b491">
   <rect height="543.6" width="1116" x="98.901563" y="17.936719"/>
  </clipPath>
 </defs>
</svg>
